<?xml version="1.0" encoding="utf-8"?>
<svg class="railroad-diagram" height="196" viewBox="0 0 534.0 196" width="534.0" xmlns="http://www.w3.org/2000/svg">
<g transform="translate(.5 .5)">
<style>/* <![CDATA[ */
	svg.railroad-diagram {
		background-color:hsl(30,20%,95%);
	}
	svg.railroad-diagram path {
		stroke-width:3;
		stroke:black;
		fill:rgba(0,0,0,0);
	}
	svg.railroad-diagram text {
		font:bold 14px monospace;
		text-anchor:middle;
	}
	svg.railroad-diagram text.label{
		text-anchor:start;
	}
	svg.railroad-diagram text.comment{
		font:italic 12px monospace;
	}
	svg.railroad-diagram rect{
		stroke-width:3;
		stroke:black;
		fill:hsl(120,100%,90%);
	}

/* ]]> */
</style><g>
<path d="M20 21v20m10 -20v20m-10 -10h20"></path></g><path d="M40 31h10"></path><g>
<path d="M50 31h0.0"></path><path d="M50.0 31h10"></path><g>
<path d="M60.0 31h104.75"></path><path d="M369.25 31h104.75"></path><g class="terminal">
<path d="M164.75 31h0.0"></path><path d="M218.75 31h0.0"></path><rect height="22" rx="10" ry="10" width="54.0" x="164.75" y="20"></rect><text x="191.75" y="35">func</text></g><path d="M218.75 31h10"></path><path d="M228.75 31h10"></path><g class="non-terminal">
<path d="M238.75 31h0.0"></path><path d="M369.25 31h0.0"></path><rect height="22" width="130.5" x="238.75" y="20"></rect><text x="304.0" y="35">Function name</text></g></g><path d="M474.0 31a10 10 0 0 1 10 10v0a10 10 0 0 1 -10 10h-414.0a10 10 0 0 0 -10 10v8a10 10 0 0 0 10 10"></path><g>
<path d="M60.0 79h12.0"></path><path d="M462.0 79h12.0"></path><g class="terminal">
<path d="M72.0 79h0.0"></path><path d="M100.5 79h0.0"></path><rect height="22" rx="10" ry="10" width="28.5" x="72.0" y="68"></rect><text x="86.25" y="83">(</text></g><path d="M100.5 79h10"></path><g>
<path d="M110.5 79h0.0"></path><path d="M423.5 79h0.0"></path><path d="M110.5 79a10 10 0 0 0 10 -10v0a10 10 0 0 1 10 -10"></path><g>
<path d="M130.5 59h273.0"></path></g><path d="M403.5 59a10 10 0 0 1 10 10v0a10 10 0 0 0 10 10"></path><path d="M110.5 79h20"></path><g>
<path d="M130.5 79h0.0"></path><path d="M403.5 79h0.0"></path><path d="M130.5 79h10"></path><g>
<path d="M140.5 79h0.0"></path><path d="M393.5 79h0.0"></path><g class="non-terminal">
<path d="M140.5 79h0.0"></path><path d="M271.0 79h0.0"></path><rect height="22" width="130.5" x="140.5" y="68"></rect><text x="205.75" y="83">Argument name</text></g><path d="M271.0 79h10"></path><path d="M281.0 79h10"></path><g class="terminal">
<path d="M291.0 79h0.0"></path><path d="M319.5 79h0.0"></path><rect height="22" rx="10" ry="10" width="28.5" x="291.0" y="68"></rect><text x="305.25" y="83">:</text></g><path d="M319.5 79h10"></path><path d="M329.5 79h10"></path><g class="non-terminal">
<path d="M339.5 79h0.0"></path><path d="M393.5 79h0.0"></path><rect height="22" width="54.0" x="339.5" y="68"></rect><text x="366.5" y="83">Type</text></g></g><path d="M393.5 79h10"></path><path d="M140.5 79a10 10 0 0 0 -10 10v10a10 10 0 0 0 10 10"></path><g class="terminal">
<path d="M140.5 109h112.25"></path><path d="M281.25 109h112.25"></path><rect height="22" rx="10" ry="10" width="28.5" x="252.75" y="98"></rect><text x="267.0" y="113">,</text></g><path d="M393.5 109a10 10 0 0 0 10 -10v-10a10 10 0 0 0 -10 -10"></path></g><path d="M403.5 79h20"></path></g><path d="M423.5 79h10"></path><g class="terminal">
<path d="M433.5 79h0.0"></path><path d="M462.0 79h0.0"></path><rect height="22" rx="10" ry="10" width="28.5" x="433.5" y="68"></rect><text x="447.75" y="83">)</text></g></g><path d="M474.0 79a10 10 0 0 1 10 10v29a10 10 0 0 1 -10 10h-414.0a10 10 0 0 0 -10 10v8a10 10 0 0 0 10 10"></path><g>
<path d="M60.0 156h10.0"></path><path d="M464.0 156h10.0"></path><g>
<path d="M70.0 156h0.0"></path><path d="M272.0 156h0.0"></path><path d="M70.0 156a10 10 0 0 0 10 -10v0a10 10 0 0 1 10 -10"></path><g>
<path d="M90.0 136h162.0"></path></g><path d="M252.0 136a10 10 0 0 1 10 10v0a10 10 0 0 0 10 10"></path><path d="M70.0 156h20"></path><g>
<path d="M90.0 156h0.0"></path><path d="M252.0 156h0.0"></path><g class="terminal">
<path d="M90.0 156h0.0"></path><path d="M118.5 156h0.0"></path><rect height="22" rx="10" ry="10" width="28.5" x="90.0" y="145"></rect><text x="104.25" y="160">:</text></g><path d="M118.5 156h10"></path><path d="M128.5 156h10"></path><g class="non-terminal">
<path d="M138.5 156h0.0"></path><path d="M252.0 156h0.0"></path><rect height="22" width="113.5" x="138.5" y="145"></rect><text x="195.25" y="160">Return type</text></g></g><path d="M252.0 156h20"></path></g><path d="M272.0 156h10"></path><g>
<path d="M282.0 156h0.0"></path><path d="M398.5 156h0.0"></path><path d="M282.0 156h10"></path><g class="non-terminal">
<path d="M292.0 156h0.0"></path><path d="M388.5 156h0.0"></path><rect height="22" width="96.5" x="292.0" y="145"></rect><text x="340.25" y="160">Statement</text></g><path d="M388.5 156h10"></path><path d="M292.0 156a10 10 0 0 0 -10 10v0a10 10 0 0 0 10 10"></path><g>
<path d="M292.0 176h96.5"></path></g><path d="M388.5 176a10 10 0 0 0 10 -10v0a10 10 0 0 0 -10 -10"></path></g><path d="M398.5 156h10"></path><path d="M408.5 156h10"></path><g class="terminal">
<path d="M418.5 156h0.0"></path><path d="M464.0 156h0.0"></path><rect height="22" rx="10" ry="10" width="45.5" x="418.5" y="145"></rect><text x="441.25" y="160">end</text></g></g><path d="M474.0 156h10"></path><path d="M484.0 156h0.0"></path></g><path d="M484.0 156h10"></path><path d="M 494.0 156 h 20 m -10 -10 v 20 m 10 -20 v 20"></path></g></svg>