<?xml version="1.0" encoding="utf-8"?>
<svg class="railroad-diagram" height="191" viewBox="0 0 652.0 191" width="652.0" xmlns="http://www.w3.org/2000/svg">
<g transform="translate(.5 .5)">
<style>/* <![CDATA[ */
	svg.railroad-diagram {
		background-color:hsl(30,20%,95%);
	}
	svg.railroad-diagram path {
		stroke-width:3;
		stroke:black;
		fill:rgba(0,0,0,0);
	}
	svg.railroad-diagram text {
		font:bold 14px monospace;
		text-anchor:middle;
	}
	svg.railroad-diagram text.label{
		text-anchor:start;
	}
	svg.railroad-diagram text.comment{
		font:italic 12px monospace;
	}
	svg.railroad-diagram rect{
		stroke-width:3;
		stroke:black;
		fill:hsl(120,100%,90%);
	}

/* ]]> */
</style><g>
<path d="M20 21v20m10 -20v20m-10 -10h20"></path></g><path d="M40 31h10"></path><g>
<path d="M50 31h0.0"></path><path d="M50.0 31h10"></path><g>
<path d="M60.0 31h51.25"></path><path d="M475.25 31h51.25"></path><g class="terminal">
<path d="M111.25 31h0.0"></path><path d="M148.25 31h0.0"></path><rect height="22" rx="10" ry="10" width="37.0" x="111.25" y="20"></rect><text x="129.75" y="35">if</text></g><path d="M148.25 31h10"></path><path d="M158.25 31h10"></path><g class="non-terminal">
<path d="M168.25 31h0.0"></path><path d="M264.75 31h0.0"></path><rect height="22" width="96.5" x="168.25" y="20"></rect><text x="216.5" y="35">Predicate</text></g><path d="M264.75 31h10"></path><path d="M274.75 31h10"></path><g class="terminal">
<path d="M284.75 31h0.0"></path><path d="M338.75 31h0.0"></path><rect height="22" rx="10" ry="10" width="54.0" x="284.75" y="20"></rect><text x="311.75" y="35">then</text></g><path d="M338.75 31h10"></path><path d="M348.75 31h10"></path><g>
<path d="M358.75 31h0.0"></path><path d="M475.25 31h0.0"></path><path d="M358.75 31h10"></path><g class="non-terminal">
<path d="M368.75 31h0.0"></path><path d="M465.25 31h0.0"></path><rect height="22" width="96.5" x="368.75" y="20"></rect><text x="417.0" y="35">Statement</text></g><path d="M465.25 31h10"></path><path d="M368.75 31a10 10 0 0 0 -10 10v0a10 10 0 0 0 10 10"></path><g>
<path d="M368.75 51h96.5"></path></g><path d="M465.25 51a10 10 0 0 0 10 -10v0a10 10 0 0 0 -10 -10"></path></g></g><path d="M526.5 31a10 10 0 0 1 10 10v8a10 10 0 0 1 -10 10h-466.5a10 10 0 0 0 -10 10v8a10 10 0 0 0 10 10"></path><g>
<path d="M60.0 87h0.0"></path><path d="M526.5 87h0.0"></path><path d="M60.0 87a10 10 0 0 0 10 -10v0a10 10 0 0 1 10 -10"></path><g>
<path d="M80.0 67h426.5"></path></g><path d="M506.5 67a10 10 0 0 1 10 10v0a10 10 0 0 0 10 10"></path><path d="M60.0 87h20"></path><g>
<path d="M80.0 87h0.0"></path><path d="M506.5 87h0.0"></path><path d="M80.0 87h10"></path><g>
<path d="M90.0 87h0.0"></path><path d="M496.5 87h0.0"></path><g class="terminal">
<path d="M90.0 87h0.0"></path><path d="M169.5 87h0.0"></path><rect height="22" rx="10" ry="10" width="79.5" x="90.0" y="76"></rect><text x="129.75" y="91">else-if</text></g><path d="M169.5 87h10"></path><path d="M179.5 87h10"></path><g class="non-terminal">
<path d="M189.5 87h0.0"></path><path d="M286.0 87h0.0"></path><rect height="22" width="96.5" x="189.5" y="76"></rect><text x="237.75" y="91">Predicate</text></g><path d="M286.0 87h10"></path><path d="M296.0 87h10"></path><g class="terminal">
<path d="M306.0 87h0.0"></path><path d="M360.0 87h0.0"></path><rect height="22" rx="10" ry="10" width="54.0" x="306.0" y="76"></rect><text x="333.0" y="91">then</text></g><path d="M360.0 87h10"></path><path d="M370.0 87h10"></path><g>
<path d="M380.0 87h0.0"></path><path d="M496.5 87h0.0"></path><path d="M380.0 87h10"></path><g class="non-terminal">
<path d="M390.0 87h0.0"></path><path d="M486.5 87h0.0"></path><rect height="22" width="96.5" x="390.0" y="76"></rect><text x="438.25" y="91">Statement</text></g><path d="M486.5 87h10"></path><path d="M390.0 87a10 10 0 0 0 -10 10v0a10 10 0 0 0 10 10"></path><g>
<path d="M390.0 107h96.5"></path></g><path d="M486.5 107a10 10 0 0 0 10 -10v0a10 10 0 0 0 -10 -10"></path></g></g><path d="M496.5 87h10"></path><path d="M90.0 87a10 10 0 0 0 -10 10v8a10 10 0 0 0 10 10"></path><g>
<path d="M90.0 115h406.5"></path></g><path d="M496.5 115a10 10 0 0 0 10 -10v-8a10 10 0 0 0 -10 -10"></path></g><path d="M506.5 87h20"></path></g><path d="M526.5 87a10 10 0 0 1 10 10v16a10 10 0 0 1 -10 10h-466.5a10 10 0 0 0 -10 10v8a10 10 0 0 0 10 10"></path><g>
<path d="M60.0 151h118.0"></path><path d="M408.5 151h118.0"></path><path d="M178.0 151a10 10 0 0 0 10 -10v0a10 10 0 0 1 10 -10"></path><g>
<path d="M198.0 131h190.5"></path></g><path d="M388.5 131a10 10 0 0 1 10 10v0a10 10 0 0 0 10 10"></path><path d="M178.0 151h20"></path><g>
<path d="M198.0 151h0.0"></path><path d="M388.5 151h0.0"></path><g class="terminal">
<path d="M198.0 151h0.0"></path><path d="M252.0 151h0.0"></path><rect height="22" rx="10" ry="10" width="54.0" x="198.0" y="140"></rect><text x="225.0" y="155">else</text></g><path d="M252.0 151h10"></path><path d="M262.0 151h10"></path><g>
<path d="M272.0 151h0.0"></path><path d="M388.5 151h0.0"></path><path d="M272.0 151h10"></path><g class="non-terminal">
<path d="M282.0 151h0.0"></path><path d="M378.5 151h0.0"></path><rect height="22" width="96.5" x="282.0" y="140"></rect><text x="330.25" y="155">Statement</text></g><path d="M378.5 151h10"></path><path d="M282.0 151a10 10 0 0 0 -10 10v0a10 10 0 0 0 10 10"></path><g>
<path d="M282.0 171h96.5"></path></g><path d="M378.5 171a10 10 0 0 0 10 -10v0a10 10 0 0 0 -10 -10"></path></g></g><path d="M388.5 151h20"></path></g><path d="M526.5 151h10"></path><path d="M536.5 151h0.0"></path></g><path d="M536.5 151h10"></path><path d="M546.5 151h10"></path><g class="terminal">
<path d="M556.5 151h0.0"></path><path d="M602.0 151h0.0"></path><rect height="22" rx="10" ry="10" width="45.5" x="556.5" y="140"></rect><text x="579.25" y="155">end</text></g><path d="M602.0 151h10"></path><path d="M 612.0 151 h 20 m -10 -10 v 20 m 10 -20 v 20"></path></g></svg>