<?xml version="1.0" encoding="utf-8"?>
<svg class="railroad-diagram" height="71" viewBox="0 0 614.5 71" width="614.5" xmlns="http://www.w3.org/2000/svg">
<g transform="translate(.5 .5)">
<style>/* <![CDATA[ */
	svg.railroad-diagram {
		background-color:hsl(30,20%,95%);
	}
	svg.railroad-diagram path {
		stroke-width:3;
		stroke:black;
		fill:rgba(0,0,0,0);
	}
	svg.railroad-diagram text {
		font:bold 14px monospace;
		text-anchor:middle;
	}
	svg.railroad-diagram text.label{
		text-anchor:start;
	}
	svg.railroad-diagram text.comment{
		font:italic 12px monospace;
	}
	svg.railroad-diagram rect{
		stroke-width:3;
		stroke:black;
		fill:hsl(120,100%,90%);
	}

/* ]]> */
</style><g>
<path d="M20 21v20m10 -20v20m-10 -10h20"></path></g><path d="M40 31h10"></path><g class="terminal">
<path d="M50 31h0.0"></path><path d="M121.0 31h0.0"></path><rect height="22" rx="10" ry="10" width="71.0" x="50.0" y="20"></rect><text x="85.5" y="35">repeat</text></g><path d="M121.0 31h10"></path><path d="M131.0 31h10"></path><g class="non-terminal">
<path d="M141.0 31h0.0"></path><path d="M280.0 31h0.0"></path><rect height="22" width="139.0" x="141.0" y="20"></rect><text x="210.5" y="35">Int expression</text></g><path d="M280.0 31h10"></path><path d="M290.0 31h10"></path><g class="terminal">
<path d="M300.0 31h0.0"></path><path d="M362.5 31h0.0"></path><rect height="22" rx="10" ry="10" width="62.5" x="300.0" y="20"></rect><text x="331.25" y="35">times</text></g><path d="M362.5 31h10"></path><path d="M372.5 31h10"></path><g>
<path d="M382.5 31h0.0"></path><path d="M499.0 31h0.0"></path><path d="M382.5 31h10"></path><g class="non-terminal">
<path d="M392.5 31h0.0"></path><path d="M489.0 31h0.0"></path><rect height="22" width="96.5" x="392.5" y="20"></rect><text x="440.75" y="35">Statement</text></g><path d="M489.0 31h10"></path><path d="M392.5 31a10 10 0 0 0 -10 10v0a10 10 0 0 0 10 10"></path><g>
<path d="M392.5 51h96.5"></path></g><path d="M489.0 51a10 10 0 0 0 10 -10v0a10 10 0 0 0 -10 -10"></path></g><path d="M499.0 31h10"></path><path d="M509.0 31h10"></path><g class="terminal">
<path d="M519.0 31h0.0"></path><path d="M564.5 31h0.0"></path><rect height="22" rx="10" ry="10" width="45.5" x="519.0" y="20"></rect><text x="541.75" y="35">end</text></g><path d="M564.5 31h10"></path><path d="M 574.5 31 h 20 m -10 -10 v 20 m 10 -20 v 20"></path></g></svg>