<?xml version="1.0" encoding="utf-8"?>
<svg  xmlns="http://www.w3.org/2000/svg" class="railroad-diagram" height="212" viewBox="0 0 607.5 212" width="607.5">
<g transform="translate(.5 .5)">
<style>/* <![CDATA[ */
	svg.railroad-diagram {
		background-color:hsl(30,20%,95%);
	}
	svg.railroad-diagram path {
		stroke-width:3;
		stroke:black;
		fill:rgba(0,0,0,0);
	}
	svg.railroad-diagram text {
		font:bold 14px monospace;
		text-anchor:middle;
	}
	svg.railroad-diagram text.label{
		text-anchor:start;
	}
	svg.railroad-diagram text.comment{
		font:italic 12px monospace;
	}
	svg.railroad-diagram rect{
		stroke-width:3;
		stroke:black;
		fill:hsl(120,100%,90%);
	}

/* ]]> */
</style><g>
<path d="M20 81v20m10 -20v20m-10 -10h20"></path></g><g>
<path d="M40 91h0.0"></path><path d="M108.5 91h0.0"></path><path d="M40.0 91a10 10 0 0 0 10 -10v-10a10 10 0 0 1 10 -10"></path><g class="terminal">
<path d="M60.0 61h0.0"></path><path d="M88.5 61h0.0"></path><rect height="22" rx="10" ry="10" width="28.5" x="60.0" y="50"></rect><text x="74.25" y="65">U</text></g><path d="M88.5 61a10 10 0 0 1 10 10v10a10 10 0 0 0 10 10"></path><path d="M40.0 91a10 10 0 0 0 10 -10v-40a10 10 0 0 1 10 -10"></path><g class="terminal">
<path d="M60.0 31h0.0"></path><path d="M88.5 31h0.0"></path><rect height="22" rx="10" ry="10" width="28.5" x="60.0" y="20"></rect><text x="74.25" y="35">F</text></g><path d="M88.5 31a10 10 0 0 1 10 10v40a10 10 0 0 0 10 10"></path><path d="M40.0 91h20"></path><g class="terminal">
<path d="M60.0 91h0.0"></path><path d="M88.5 91h0.0"></path><rect height="22" rx="10" ry="10" width="28.5" x="60.0" y="80"></rect><text x="74.25" y="95">R</text></g><path d="M88.5 91h20"></path><path d="M40.0 91a10 10 0 0 1 10 10v10a10 10 0 0 0 10 10"></path><g class="terminal">
<path d="M60.0 121h0.0"></path><path d="M88.5 121h0.0"></path><rect height="22" rx="10" ry="10" width="28.5" x="60.0" y="110"></rect><text x="74.25" y="125">L</text></g><path d="M88.5 121a10 10 0 0 0 10 -10v-10a10 10 0 0 1 10 -10"></path><path d="M40.0 91a10 10 0 0 1 10 10v40a10 10 0 0 0 10 10"></path><g class="terminal">
<path d="M60.0 151h0.0"></path><path d="M88.5 151h0.0"></path><rect height="22" rx="10" ry="10" width="28.5" x="60.0" y="140"></rect><text x="74.25" y="155">U</text></g><path d="M88.5 151a10 10 0 0 0 10 -10v-40a10 10 0 0 1 10 -10"></path><path d="M40.0 91a10 10 0 0 1 10 10v70a10 10 0 0 0 10 10"></path><g class="terminal">
<path d="M60.0 181h0.0"></path><path d="M88.5 181h0.0"></path><rect height="22" rx="10" ry="10" width="28.5" x="60.0" y="170"></rect><text x="74.25" y="185">D</text></g><path d="M88.5 181a10 10 0 0 0 10 -10v-70a10 10 0 0 1 10 -10"></path></g><g>
<path d="M108.5 91h0.0"></path><path d="M177.0 91h0.0"></path><path d="M108.5 91a10 10 0 0 0 10 -10v0a10 10 0 0 1 10 -10"></path><g class="terminal">
<path d="M128.5 71h0.0"></path><path d="M157.0 71h0.0"></path><rect height="22" rx="10" ry="10" width="28.5" x="128.5" y="60"></rect><text x="142.75" y="75">'</text></g><path d="M157.0 71a10 10 0 0 1 10 10v0a10 10 0 0 0 10 10"></path><path d="M108.5 91h20"></path><g>
<path d="M128.5 91h28.5"></path></g><path d="M157.0 91h20"></path><path d="M108.5 91a10 10 0 0 1 10 10v0a10 10 0 0 0 10 10"></path><g class="terminal">
<path d="M128.5 111h0.0"></path><path d="M157.0 111h0.0"></path><rect height="22" rx="10" ry="10" width="28.5" x="128.5" y="100"></rect><text x="142.75" y="115">2</text></g><path d="M157.0 111a10 10 0 0 0 10 -10v0a10 10 0 0 1 10 -10"></path></g><g>
<path d="M177.0 91h0.0"></path><path d="M567.5 91h0.0"></path><path d="M177.0 91a10 10 0 0 0 10 -10v-29a10 10 0 0 1 10 -10"></path><g>
<path d="M197.0 42h350.5"></path></g><path d="M547.5 42a10 10 0 0 1 10 10v29a10 10 0 0 0 10 10"></path><path d="M177.0 91h20"></path><g>
<path d="M197.0 91h0.0"></path><path d="M547.5 91h0.0"></path><g class="terminal">
<path d="M197.0 91h0.0"></path><path d="M225.5 91h0.0"></path><rect height="22" rx="10" ry="10" width="28.5" x="197.0" y="80"></rect><text x="211.25" y="95">&#91</text></g><path d="M225.5 91h10"></path><path d="M235.5 91h10"></path><g>
<path d="M245.5 91h0.0"></path><path d="M499.0 91h0.0"></path><path d="M245.5 91h10"></path><g>
<path d="M255.5 91h0.0"></path><path d="M489.0 91h0.0"></path><path d="M255.5 91a10 10 0 0 0 10 -10v-10a10 10 0 0 1 10 -10"></path><g class="non-terminal">
<path d="M275.5 61h65.5"></path><path d="M403.5 61h65.5"></path><rect height="22" width="62.5" x="341.0" y="50"></rect><text x="372.25" y="65">Index</text></g><path d="M469.0 61a10 10 0 0 1 10 10v10a10 10 0 0 0 10 10"></path><path d="M255.5 91h20"></path><g>
<path d="M275.5 91h41.25"></path><path d="M427.75 91h41.25"></path><g class="non-terminal">
<path d="M316.75 91h0.0"></path><path d="M379.25 91h0.0"></path><rect height="22" width="62.5" x="316.75" y="80"></rect><text x="348.0" y="95">Index</text></g><path d="M379.25 91h10"></path><path d="M389.25 91h10"></path><g class="terminal">
<path d="M399.25 91h0.0"></path><path d="M427.75 91h0.0"></path><rect height="22" rx="10" ry="10" width="28.5" x="399.25" y="80"></rect><text x="413.5" y="95">:</text></g></g><path d="M469.0 91h20"></path><path d="M255.5 91a10 10 0 0 1 10 10v10a10 10 0 0 0 10 10"></path><g>
<path d="M275.5 121h41.25"></path><path d="M427.75 121h41.25"></path><g class="terminal">
<path d="M316.75 121h0.0"></path><path d="M345.25 121h0.0"></path><rect height="22" rx="10" ry="10" width="28.5" x="316.75" y="110"></rect><text x="331.0" y="125">:</text></g><path d="M345.25 121h10"></path><path d="M355.25 121h10"></path><g class="non-terminal">
<path d="M365.25 121h0.0"></path><path d="M427.75 121h0.0"></path><rect height="22" width="62.5" x="365.25" y="110"></rect><text x="396.5" y="125">Index</text></g></g><path d="M469.0 121a10 10 0 0 0 10 -10v-10a10 10 0 0 1 10 -10"></path><path d="M255.5 91a10 10 0 0 1 10 10v40a10 10 0 0 0 10 10"></path><g>
<path d="M275.5 151h0.0"></path><path d="M469.0 151h0.0"></path><g class="non-terminal">
<path d="M275.5 151h0.0"></path><path d="M338.0 151h0.0"></path><rect height="22" width="62.5" x="275.5" y="140"></rect><text x="306.75" y="155">Index</text></g><path d="M338.0 151h10"></path><path d="M348.0 151h10"></path><g class="terminal">
<path d="M358.0 151h0.0"></path><path d="M386.5 151h0.0"></path><rect height="22" rx="10" ry="10" width="28.5" x="358.0" y="140"></rect><text x="372.25" y="155">:</text></g><path d="M386.5 151h10"></path><path d="M396.5 151h10"></path><g class="non-terminal">
<path d="M406.5 151h0.0"></path><path d="M469.0 151h0.0"></path><rect height="22" width="62.5" x="406.5" y="140"></rect><text x="437.75" y="155">Index</text></g></g><path d="M469.0 151a10 10 0 0 0 10 -10v-40a10 10 0 0 1 10 -10"></path></g><path d="M489.0 91h10"></path><path d="M255.5 91a10 10 0 0 0 -10 10v70a10 10 0 0 0 10 10"></path><g class="terminal">
<path d="M255.5 181h102.5"></path><path d="M386.5 181h102.5"></path><rect height="22" rx="10" ry="10" width="28.5" x="358.0" y="170"></rect><text x="372.25" y="185">,</text></g><path d="M489.0 181a10 10 0 0 0 10 -10v-70a10 10 0 0 0 -10 -10"></path></g><path d="M499.0 91h10"></path><path d="M509.0 91h10"></path><g class="terminal">
<path d="M519.0 91h0.0"></path><path d="M547.5 91h0.0"></path><rect height="22" rx="10" ry="10" width="28.5" x="519.0" y="80"></rect><text x="533.25" y="95">&#93</text></g></g><path d="M547.5 91h20"></path></g><path d="M 567.5 91 h 20 m -10 -10 v 20 m 10 -20 v 20"></path></g></svg>