<?xml version="1.0" encoding="utf-8"?>
<svg  xmlns="http://www.w3.org/2000/svg" class="railroad-diagram" height="101" viewBox="0 0 592.0 101" width="592.0">
<g transform="translate(.5 .5)">
<style>/* <![CDATA[ */
	svg.railroad-diagram {
		background-color:hsl(30,20%,95%);
	}
	svg.railroad-diagram path {
		stroke-width:3;
		stroke:black;
		fill:rgba(0,0,0,0);
	}
	svg.railroad-diagram text {
		font:bold 14px monospace;
		text-anchor:middle;
	}
	svg.railroad-diagram text.label{
		text-anchor:start;
	}
	svg.railroad-diagram text.comment{
		font:italic 12px monospace;
	}
	svg.railroad-diagram rect{
		stroke-width:3;
		stroke:black;
		fill:hsl(120,100%,90%);
	}

/* ]]> */
</style><g>
<path d="M20 30v20m10 -20v20m-10 -10h20"></path></g><path d="M40 40h10"></path><g>
<path d="M50 40h0.0"></path><path d="M200.5 40h0.0"></path><path d="M50.0 40h10"></path><g class="non-terminal">
<path d="M60.0 40h0.0"></path><path d="M190.5 40h0.0"></path><rect height="22" width="130.5" x="60.0" y="29"></rect><text x="125.25" y="44">Variable name</text></g><path d="M190.5 40h10"></path><path d="M60.0 40a10 10 0 0 0 -10 10v10a10 10 0 0 0 10 10"></path><g class="terminal">
<path d="M60.0 70h51.0"></path><path d="M139.5 70h51.0"></path><rect height="22" rx="10" ry="10" width="28.5" x="111.0" y="59"></rect><text x="125.25" y="74">,</text></g><path d="M190.5 70a10 10 0 0 0 10 -10v-10a10 10 0 0 0 -10 -10"></path></g><path d="M200.5 40h10"></path><path d="M210.5 40h10"></path><g class="terminal">
<path d="M220.5 40h0.0"></path><path d="M249.0 40h0.0"></path><rect height="22" rx="10" ry="10" width="28.5" x="220.5" y="29"></rect><text x="234.75" y="44">:</text></g><path d="M249.0 40h10"></path><path d="M259.0 40h10"></path><g class="non-terminal">
<path d="M269.0 40h0.0"></path><path d="M323.0 40h0.0"></path><rect height="22" width="54.0" x="269.0" y="29"></rect><text x="296.0" y="44">type</text></g><path d="M323.0 40h10"></path><g>
<path d="M333.0 40h0.0"></path><path d="M552.0 40h0.0"></path><path d="M333.0 40a10 10 0 0 0 10 -10v0a10 10 0 0 1 10 -10"></path><g>
<path d="M353.0 20h179.0"></path></g><path d="M532.0 20a10 10 0 0 1 10 10v0a10 10 0 0 0 10 10"></path><path d="M333.0 40h20"></path><g>
<path d="M353.0 40h0.0"></path><path d="M532.0 40h0.0"></path><g class="terminal">
<path d="M353.0 40h0.0"></path><path d="M381.5 40h0.0"></path><rect height="22" rx="10" ry="10" width="28.5" x="353.0" y="29"></rect><text x="367.25" y="44">:</text></g><path d="M381.5 40h10"></path><path d="M391.5 40h10"></path><g class="non-terminal">
<path d="M401.5 40h0.0"></path><path d="M532.0 40h0.0"></path><rect height="22" width="130.5" x="401.5" y="29"></rect><text x="466.75" y="44">Initial value</text></g></g><path d="M532.0 40h20"></path></g><path d="M 552.0 40 h 20 m -10 -10 v 20 m 10 -20 v 20"></path></g></svg>