<?xml version="1.0" encoding="utf-8"?>
<svg class="railroad-diagram" height="101" viewBox="0 0 657.5 101" width="657.5" xmlns="http://www.w3.org/2000/svg">
<g transform="translate(.5 .5)">
<style>/* <![CDATA[ */
	svg.railroad-diagram {
		background-color:hsl(30,20%,95%);
	}
	svg.railroad-diagram path {
		stroke-width:3;
		stroke:black;
		fill:rgba(0,0,0,0);
	}
	svg.railroad-diagram text {
		font:bold 14px monospace;
		text-anchor:middle;
	}
	svg.railroad-diagram text.label{
		text-anchor:start;
	}
	svg.railroad-diagram text.comment{
		font:italic 12px monospace;
	}
	svg.railroad-diagram rect{
		stroke-width:3;
		stroke:black;
		fill:hsl(120,100%,90%);
	}

/* ]]> */
</style><g>
<path d="M20 30v20m10 -20v20m-10 -10h20"></path></g><path d="M40 40h10"></path><g class="terminal">
<path d="M50 40h0.0"></path><path d="M95.5 40h0.0"></path><rect height="22" rx="10" ry="10" width="45.5" x="50.0" y="29"></rect><text x="72.75" y="44">let</text></g><path d="M95.5 40h10"></path><path d="M105.5 40h10"></path><g>
<path d="M115.5 40h0.0"></path><path d="M266.0 40h0.0"></path><path d="M115.5 40h10"></path><g class="non-terminal">
<path d="M125.5 40h0.0"></path><path d="M256.0 40h0.0"></path><rect height="22" width="130.5" x="125.5" y="29"></rect><text x="190.75" y="44">Variable name</text></g><path d="M256.0 40h10"></path><path d="M125.5 40a10 10 0 0 0 -10 10v10a10 10 0 0 0 10 10"></path><g class="terminal">
<path d="M125.5 70h51.0"></path><path d="M205.0 70h51.0"></path><rect height="22" rx="10" ry="10" width="28.5" x="176.5" y="59"></rect><text x="190.75" y="74">,</text></g><path d="M256.0 70a10 10 0 0 0 10 -10v-10a10 10 0 0 0 -10 -10"></path></g><path d="M266.0 40h10"></path><path d="M276.0 40h10"></path><g class="terminal">
<path d="M286.0 40h0.0"></path><path d="M314.5 40h0.0"></path><rect height="22" rx="10" ry="10" width="28.5" x="286.0" y="29"></rect><text x="300.25" y="44">:</text></g><path d="M314.5 40h10"></path><path d="M324.5 40h10"></path><g class="non-terminal">
<path d="M334.5 40h0.0"></path><path d="M388.5 40h0.0"></path><rect height="22" width="54.0" x="334.5" y="29"></rect><text x="361.5" y="44">type</text></g><path d="M388.5 40h10"></path><g>
<path d="M398.5 40h0.0"></path><path d="M617.5 40h0.0"></path><path d="M398.5 40a10 10 0 0 0 10 -10v0a10 10 0 0 1 10 -10"></path><g>
<path d="M418.5 20h179.0"></path></g><path d="M597.5 20a10 10 0 0 1 10 10v0a10 10 0 0 0 10 10"></path><path d="M398.5 40h20"></path><g>
<path d="M418.5 40h0.0"></path><path d="M597.5 40h0.0"></path><g class="terminal">
<path d="M418.5 40h0.0"></path><path d="M447.0 40h0.0"></path><rect height="22" rx="10" ry="10" width="28.5" x="418.5" y="29"></rect><text x="432.75" y="44">=</text></g><path d="M447.0 40h10"></path><path d="M457.0 40h10"></path><g class="non-terminal">
<path d="M467.0 40h0.0"></path><path d="M597.5 40h0.0"></path><rect height="22" width="130.5" x="467.0" y="29"></rect><text x="532.25" y="44">Initial value</text></g></g><path d="M597.5 40h20"></path></g><path d="M 617.5 40 h 20 m -10 -10 v 20 m 10 -20 v 20"></path></g></svg>