<svg width="434" height="328" viewBox="0 0 434 328" fill="none" xmlns="http://www.w3.org/2000/svg">
<rect width="434" height="328" fill="white"/>
<path d="M116 13C116 11.3431 117.343 10 119 10H146V40H116V13Z" fill="#C4C4C4"/>
<rect x="149" y="10" width="30" height="30" fill="#C4C4C4"/>
<path d="M182 10H209C210.657 10 212 11.3431 212 13V40H182V10Z" fill="#C4C4C4"/>
<rect x="116" y="43" width="30" height="30" fill="#C4C4C4"/>
<rect x="149" y="43" width="30" height="30" fill="#C4C4C4"/>
<rect x="182" y="43" width="30" height="30" fill="#C4C4C4"/>
<path d="M116 76H146V106H119C117.343 106 116 104.657 116 103V76Z" fill="#C4C4C4"/>
<rect x="149" y="76" width="30" height="30" fill="#C4C4C4"/>
<path d="M182 76H212V103C212 104.657 210.657 106 209 106H182V76Z" fill="#C4C4C4"/>
<rect x="147.657" y="36" width="8" height="8" transform="rotate(45 147.657 36)" fill="white"/>
<rect x="180.657" y="36" width="8" height="8" transform="rotate(45 180.657 36)" fill="white"/>
<rect x="147.657" y="69" width="8" height="8" transform="rotate(45 147.657 69)" fill="white"/>
<rect x="180.657" y="69" width="8" height="8" transform="rotate(45 180.657 69)" fill="white"/>
<path d="M132.212 32.9678C132.212 34.0257 132.031 34.8118 131.67 35.3262C131.309 35.8405 130.744 36.0977 129.976 36.0977C129.217 36.0977 128.656 35.847 128.291 35.3457C127.926 34.8411 127.738 34.0892 127.725 33.0898V31.8838C127.725 30.8389 127.905 30.0625 128.267 29.5547C128.628 29.0469 129.194 28.793 129.966 28.793C130.731 28.793 131.294 29.0387 131.655 29.5303C132.017 30.0186 132.202 30.7738 132.212 31.7959V32.9678ZM131.309 31.7324C131.309 30.9674 131.201 30.4108 130.986 30.0625C130.771 29.7109 130.431 29.5352 129.966 29.5352C129.504 29.5352 129.167 29.7093 128.955 30.0576C128.743 30.4059 128.634 30.9414 128.628 31.6641V33.1094C128.628 33.8776 128.739 34.4456 128.96 34.8135C129.185 35.1781 129.523 35.3604 129.976 35.3604C130.422 35.3604 130.752 35.1878 130.967 34.8428C131.185 34.4977 131.299 33.9541 131.309 33.2119V31.7324ZM133.433 37.416L132.92 37.0645C133.226 36.638 133.385 36.1986 133.398 35.7461V34.9307H134.282V35.6387C134.282 35.9674 134.201 36.2962 134.038 36.625C133.879 36.9538 133.677 37.2174 133.433 37.416ZM142.271 32.9678C142.271 34.0257 142.09 34.8118 141.729 35.3262C141.367 35.8405 140.802 36.0977 140.034 36.0977C139.276 36.0977 138.714 35.847 138.35 35.3457C137.985 34.8411 137.796 34.0892 137.783 33.0898V31.8838C137.783 30.8389 137.964 30.0625 138.325 29.5547C138.687 29.0469 139.253 28.793 140.024 28.793C140.789 28.793 141.353 29.0387 141.714 29.5303C142.075 30.0186 142.261 30.7738 142.271 31.7959V32.9678ZM141.367 31.7324C141.367 30.9674 141.26 30.4108 141.045 30.0625C140.83 29.7109 140.49 29.5352 140.024 29.5352C139.562 29.5352 139.225 29.7093 139.014 30.0576C138.802 30.4059 138.693 30.9414 138.687 31.6641V33.1094C138.687 33.8776 138.797 34.4456 139.019 34.8135C139.243 35.1781 139.582 35.3604 140.034 35.3604C140.48 35.3604 140.811 35.1878 141.025 34.8428C141.243 34.4977 141.357 33.9541 141.367 33.2119V31.7324Z" fill="black"/>
<path d="M129.723 69H128.814V62.9795L126.993 63.6484V62.8281L129.581 61.8564H129.723V69ZM132.433 70.416L131.92 70.0645C132.226 69.638 132.385 69.1986 132.398 68.7461V67.9307H133.282V68.6387C133.282 68.9674 133.201 69.2962 133.038 69.625C132.879 69.9538 132.677 70.2174 132.433 70.416ZM141.271 65.9678C141.271 67.0257 141.09 67.8118 140.729 68.3262C140.367 68.8405 139.802 69.0977 139.034 69.0977C138.276 69.0977 137.714 68.847 137.35 68.3457C136.985 67.8411 136.796 67.0892 136.783 66.0898V64.8838C136.783 63.8389 136.964 63.0625 137.325 62.5547C137.687 62.0469 138.253 61.793 139.024 61.793C139.789 61.793 140.353 62.0387 140.714 62.5303C141.075 63.0186 141.261 63.7738 141.271 64.7959V65.9678ZM140.367 64.7324C140.367 63.9674 140.26 63.4108 140.045 63.0625C139.83 62.7109 139.49 62.5352 139.024 62.5352C138.562 62.5352 138.225 62.7093 138.014 63.0576C137.802 63.4059 137.693 63.9414 137.687 64.6641V66.1094C137.687 66.8776 137.797 67.4456 138.019 67.8135C138.243 68.1781 138.582 68.3604 139.034 68.3604C139.48 68.3604 139.811 68.1878 140.025 67.8428C140.243 67.4977 140.357 66.9541 140.367 66.2119V64.7324Z" fill="black"/>
<path d="M132.412 102H127.754V101.351L130.215 98.6162C130.579 98.2028 130.83 97.8675 130.967 97.6104C131.107 97.3499 131.177 97.0814 131.177 96.8047C131.177 96.4336 131.064 96.1292 130.84 95.8916C130.615 95.654 130.316 95.5352 129.941 95.5352C129.492 95.5352 129.142 95.6637 128.892 95.9209C128.644 96.1748 128.521 96.5296 128.521 96.9854H127.617C127.617 96.3311 127.827 95.8021 128.247 95.3984C128.67 94.9948 129.235 94.793 129.941 94.793C130.602 94.793 131.125 94.9671 131.509 95.3154C131.893 95.6605 132.085 96.1211 132.085 96.6973C132.085 97.3971 131.639 98.2305 130.747 99.1973L128.843 101.263H132.412V102ZM133.433 103.416L132.92 103.064C133.226 102.638 133.385 102.199 133.398 101.746V100.931H134.282V101.639C134.282 101.967 134.201 102.296 134.038 102.625C133.879 102.954 133.677 103.217 133.433 103.416ZM142.271 98.9678C142.271 100.026 142.09 100.812 141.729 101.326C141.367 101.84 140.802 102.098 140.034 102.098C139.276 102.098 138.714 101.847 138.35 101.346C137.985 100.841 137.796 100.089 137.783 99.0898V97.8838C137.783 96.8389 137.964 96.0625 138.325 95.5547C138.687 95.0469 139.253 94.793 140.024 94.793C140.789 94.793 141.353 95.0387 141.714 95.5303C142.075 96.0186 142.261 96.7738 142.271 97.7959V98.9678ZM141.367 97.7324C141.367 96.9674 141.26 96.4108 141.045 96.0625C140.83 95.7109 140.49 95.5352 140.024 95.5352C139.562 95.5352 139.225 95.7093 139.014 96.0576C138.802 96.4059 138.693 96.9414 138.687 97.6641V99.1094C138.687 99.8776 138.797 100.446 139.019 100.813C139.243 101.178 139.582 101.36 140.034 101.36C140.48 101.36 140.811 101.188 141.025 100.843C141.243 100.498 141.357 99.9541 141.367 99.2119V97.7324Z" fill="black"/>
<path d="M165.212 32.9678C165.212 34.0257 165.031 34.8118 164.67 35.3262C164.309 35.8405 163.744 36.0977 162.976 36.0977C162.217 36.0977 161.656 35.847 161.291 35.3457C160.926 34.8411 160.738 34.0892 160.725 33.0898V31.8838C160.725 30.8389 160.905 30.0625 161.267 29.5547C161.628 29.0469 162.194 28.793 162.966 28.793C163.731 28.793 164.294 29.0387 164.655 29.5303C165.017 30.0186 165.202 30.7738 165.212 31.7959V32.9678ZM164.309 31.7324C164.309 30.9674 164.201 30.4108 163.986 30.0625C163.771 29.7109 163.431 29.5352 162.966 29.5352C162.504 29.5352 162.167 29.7093 161.955 30.0576C161.743 30.4059 161.634 30.9414 161.628 31.6641V33.1094C161.628 33.8776 161.739 34.4456 161.96 34.8135C162.185 35.1781 162.523 35.3604 162.976 35.3604C163.422 35.3604 163.752 35.1878 163.967 34.8428C164.185 34.4977 164.299 33.9541 164.309 33.2119V31.7324ZM166.433 37.416L165.92 37.0645C166.226 36.638 166.385 36.1986 166.398 35.7461V34.9307H167.282V35.6387C167.282 35.9674 167.201 36.2962 167.038 36.625C166.879 36.9538 166.677 37.2174 166.433 37.416ZM173.781 36H172.873V29.9795L171.052 30.6484V29.8281L173.64 28.8564H173.781V36Z" fill="black"/>
<path d="M198.212 32.9678C198.212 34.0257 198.031 34.8118 197.67 35.3262C197.309 35.8405 196.744 36.0977 195.976 36.0977C195.217 36.0977 194.656 35.847 194.291 35.3457C193.926 34.8411 193.738 34.0892 193.725 33.0898V31.8838C193.725 30.8389 193.905 30.0625 194.267 29.5547C194.628 29.0469 195.194 28.793 195.966 28.793C196.731 28.793 197.294 29.0387 197.655 29.5303C198.017 30.0186 198.202 30.7738 198.212 31.7959V32.9678ZM197.309 31.7324C197.309 30.9674 197.201 30.4108 196.986 30.0625C196.771 29.7109 196.431 29.5352 195.966 29.5352C195.504 29.5352 195.167 29.7093 194.955 30.0576C194.743 30.4059 194.634 30.9414 194.628 31.6641V33.1094C194.628 33.8776 194.739 34.4456 194.96 34.8135C195.185 35.1781 195.523 35.3604 195.976 35.3604C196.422 35.3604 196.752 35.1878 196.967 34.8428C197.185 34.4977 197.299 33.9541 197.309 33.2119V31.7324ZM199.433 37.416L198.92 37.0645C199.226 36.638 199.385 36.1986 199.398 35.7461V34.9307H200.282V35.6387C200.282 35.9674 200.201 36.2962 200.038 36.625C199.879 36.9538 199.677 37.2174 199.433 37.416ZM208.471 36H203.812V35.3506L206.273 32.6162C206.638 32.2028 206.889 31.8675 207.025 31.6104C207.165 31.3499 207.235 31.0814 207.235 30.8047C207.235 30.4336 207.123 30.1292 206.898 29.8916C206.674 29.654 206.374 29.5352 206 29.5352C205.551 29.5352 205.201 29.6637 204.95 29.9209C204.703 30.1748 204.579 30.5296 204.579 30.9854H203.676C203.676 30.3311 203.886 29.8021 204.306 29.3984C204.729 28.9948 205.294 28.793 206 28.793C206.661 28.793 207.183 28.9671 207.567 29.3154C207.951 29.6605 208.144 30.1211 208.144 30.6973C208.144 31.3971 207.698 32.2305 206.806 33.1973L204.901 35.2627H208.471V36Z" fill="black"/>
<path d="M163.723 69H162.814V62.9795L160.993 63.6484V62.8281L163.581 61.8564H163.723V69ZM166.433 70.416L165.92 70.0645C166.226 69.638 166.385 69.1986 166.398 68.7461V67.9307H167.282V68.6387C167.282 68.9674 167.201 69.2962 167.038 69.625C166.879 69.9538 166.677 70.2174 166.433 70.416ZM173.781 69H172.873V62.9795L171.052 63.6484V62.8281L173.64 61.8564H173.781V69Z" fill="black"/>
<path d="M196.723 69H195.814V62.9795L193.993 63.6484V62.8281L196.581 61.8564H196.723V69ZM199.433 70.416L198.92 70.0645C199.226 69.638 199.385 69.1986 199.398 68.7461V67.9307H200.282V68.6387C200.282 68.9674 200.201 69.2962 200.038 69.625C199.879 69.9538 199.677 70.2174 199.433 70.416ZM208.471 69H203.812V68.3506L206.273 65.6162C206.638 65.2028 206.889 64.8675 207.025 64.6104C207.165 64.3499 207.235 64.0814 207.235 63.8047C207.235 63.4336 207.123 63.1292 206.898 62.8916C206.674 62.654 206.374 62.5352 206 62.5352C205.551 62.5352 205.201 62.6637 204.95 62.9209C204.703 63.1748 204.579 63.5296 204.579 63.9854H203.676C203.676 63.3311 203.886 62.8021 204.306 62.3984C204.729 61.9948 205.294 61.793 206 61.793C206.661 61.793 207.183 61.9671 207.567 62.3154C207.951 62.6605 208.144 63.1211 208.144 63.6973C208.144 64.3971 207.698 65.2305 206.806 66.1973L204.901 68.2627H208.471V69Z" fill="black"/>
<path d="M165.412 102H160.754V101.351L163.215 98.6162C163.579 98.2028 163.83 97.8675 163.967 97.6104C164.107 97.3499 164.177 97.0814 164.177 96.8047C164.177 96.4336 164.064 96.1292 163.84 95.8916C163.615 95.654 163.316 95.5352 162.941 95.5352C162.492 95.5352 162.142 95.6637 161.892 95.9209C161.644 96.1748 161.521 96.5296 161.521 96.9854H160.617C160.617 96.3311 160.827 95.8021 161.247 95.3984C161.67 94.9948 162.235 94.793 162.941 94.793C163.602 94.793 164.125 94.9671 164.509 95.3154C164.893 95.6605 165.085 96.1211 165.085 96.6973C165.085 97.3971 164.639 98.2305 163.747 99.1973L161.843 101.263H165.412V102ZM166.433 103.416L165.92 103.064C166.226 102.638 166.385 102.199 166.398 101.746V100.931H167.282V101.639C167.282 101.967 167.201 102.296 167.038 102.625C166.879 102.954 166.677 103.217 166.433 103.416ZM173.781 102H172.873V95.9795L171.052 96.6484V95.8281L173.64 94.8564H173.781V102Z" fill="black"/>
<path d="M198.412 102H193.754V101.351L196.215 98.6162C196.579 98.2028 196.83 97.8675 196.967 97.6104C197.107 97.3499 197.177 97.0814 197.177 96.8047C197.177 96.4336 197.064 96.1292 196.84 95.8916C196.615 95.654 196.316 95.5352 195.941 95.5352C195.492 95.5352 195.142 95.6637 194.892 95.9209C194.644 96.1748 194.521 96.5296 194.521 96.9854H193.617C193.617 96.3311 193.827 95.8021 194.247 95.3984C194.67 94.9948 195.235 94.793 195.941 94.793C196.602 94.793 197.125 94.9671 197.509 95.3154C197.893 95.6605 198.085 96.1211 198.085 96.6973C198.085 97.3971 197.639 98.2305 196.747 99.1973L194.843 101.263H198.412V102ZM199.433 103.416L198.92 103.064C199.226 102.638 199.385 102.199 199.398 101.746V100.931H200.282V101.639C200.282 101.967 200.201 102.296 200.038 102.625C199.879 102.954 199.677 103.217 199.433 103.416ZM208.471 102H203.812V101.351L206.273 98.6162C206.638 98.2028 206.889 97.8675 207.025 97.6104C207.165 97.3499 207.235 97.0814 207.235 96.8047C207.235 96.4336 207.123 96.1292 206.898 95.8916C206.674 95.654 206.374 95.5352 206 95.5352C205.551 95.5352 205.201 95.6637 204.95 95.9209C204.703 96.1748 204.579 96.5296 204.579 96.9854H203.676C203.676 96.3311 203.886 95.8021 204.306 95.3984C204.729 94.9948 205.294 94.793 206 94.793C206.661 94.793 207.183 94.9671 207.567 95.3154C207.951 95.6605 208.144 96.1211 208.144 96.6973C208.144 97.3971 207.698 98.2305 206.806 99.1973L204.901 101.263H208.471V102Z" fill="black"/>
<path d="M116 119C116 117.343 117.343 116 119 116H146V146H116V119Z" fill="#C4C4C4"/>
<rect x="149" y="116" width="30" height="30" fill="#C4C4C4"/>
<path d="M182 116H209C210.657 116 212 117.343 212 119V146H182V116Z" fill="#C4C4C4"/>
<rect x="116" y="149" width="30" height="30" fill="#C4C4C4"/>
<rect x="149" y="149" width="30" height="30" fill="#C4C4C4"/>
<rect x="182" y="149" width="30" height="30" fill="#C4C4C4"/>
<path d="M116 182H146V212H119C117.343 212 116 210.657 116 209V182Z" fill="#C4C4C4"/>
<rect x="149" y="182" width="30" height="30" fill="#C4C4C4"/>
<path d="M182 182H212V209C212 210.657 210.657 212 209 212H182V182Z" fill="#C4C4C4"/>
<rect x="147.657" y="142" width="8" height="8" transform="rotate(45 147.657 142)" fill="white"/>
<rect x="180.657" y="142" width="8" height="8" transform="rotate(45 180.657 142)" fill="white"/>
<rect x="147.657" y="175" width="8" height="8" transform="rotate(45 147.657 175)" fill="white"/>
<rect x="180.657" y="175" width="8" height="8" transform="rotate(45 180.657 175)" fill="white"/>
<path d="M132.212 138.968C132.212 140.026 132.031 140.812 131.67 141.326C131.309 141.84 130.744 142.098 129.976 142.098C129.217 142.098 128.656 141.847 128.291 141.346C127.926 140.841 127.738 140.089 127.725 139.09V137.884C127.725 136.839 127.905 136.062 128.267 135.555C128.628 135.047 129.194 134.793 129.966 134.793C130.731 134.793 131.294 135.039 131.655 135.53C132.017 136.019 132.202 136.774 132.212 137.796V138.968ZM131.309 137.732C131.309 136.967 131.201 136.411 130.986 136.062C130.771 135.711 130.431 135.535 129.966 135.535C129.504 135.535 129.167 135.709 128.955 136.058C128.743 136.406 128.634 136.941 128.628 137.664V139.109C128.628 139.878 128.739 140.446 128.96 140.813C129.185 141.178 129.523 141.36 129.976 141.36C130.422 141.36 130.752 141.188 130.967 140.843C131.185 140.498 131.299 139.954 131.309 139.212V137.732ZM133.433 143.416L132.92 143.064C133.226 142.638 133.385 142.199 133.398 141.746V140.931H134.282V141.639C134.282 141.967 134.201 142.296 134.038 142.625C133.879 142.954 133.677 143.217 133.433 143.416ZM142.271 138.968C142.271 140.026 142.09 140.812 141.729 141.326C141.367 141.84 140.802 142.098 140.034 142.098C139.276 142.098 138.714 141.847 138.35 141.346C137.985 140.841 137.796 140.089 137.783 139.09V137.884C137.783 136.839 137.964 136.062 138.325 135.555C138.687 135.047 139.253 134.793 140.024 134.793C140.789 134.793 141.353 135.039 141.714 135.53C142.075 136.019 142.261 136.774 142.271 137.796V138.968ZM141.367 137.732C141.367 136.967 141.26 136.411 141.045 136.062C140.83 135.711 140.49 135.535 140.024 135.535C139.562 135.535 139.225 135.709 139.014 136.058C138.802 136.406 138.693 136.941 138.687 137.664V139.109C138.687 139.878 138.797 140.446 139.019 140.813C139.243 141.178 139.582 141.36 140.034 141.36C140.48 141.36 140.811 141.188 141.025 140.843C141.243 140.498 141.357 139.954 141.367 139.212V137.732Z" fill="black"/>
<path d="M129.723 175H128.814V168.979L126.993 169.648V168.828L129.581 167.856H129.723V175ZM132.433 176.416L131.92 176.064C132.226 175.638 132.385 175.199 132.398 174.746V173.931H133.282V174.639C133.282 174.967 133.201 175.296 133.038 175.625C132.879 175.954 132.677 176.217 132.433 176.416ZM141.271 171.968C141.271 173.026 141.09 173.812 140.729 174.326C140.367 174.84 139.802 175.098 139.034 175.098C138.276 175.098 137.714 174.847 137.35 174.346C136.985 173.841 136.796 173.089 136.783 172.09V170.884C136.783 169.839 136.964 169.062 137.325 168.555C137.687 168.047 138.253 167.793 139.024 167.793C139.789 167.793 140.353 168.039 140.714 168.53C141.075 169.019 141.261 169.774 141.271 170.796V171.968ZM140.367 170.732C140.367 169.967 140.26 169.411 140.045 169.062C139.83 168.711 139.49 168.535 139.024 168.535C138.562 168.535 138.225 168.709 138.014 169.058C137.802 169.406 137.693 169.941 137.687 170.664V172.109C137.687 172.878 137.797 173.446 138.019 173.813C138.243 174.178 138.582 174.36 139.034 174.36C139.48 174.36 139.811 174.188 140.025 173.843C140.243 173.498 140.357 172.954 140.367 172.212V170.732Z" fill="black"/>
<path d="M132.412 208H127.754V207.351L130.215 204.616C130.579 204.203 130.83 203.868 130.967 203.61C131.107 203.35 131.177 203.081 131.177 202.805C131.177 202.434 131.064 202.129 130.84 201.892C130.615 201.654 130.316 201.535 129.941 201.535C129.492 201.535 129.142 201.664 128.892 201.921C128.644 202.175 128.521 202.53 128.521 202.985H127.617C127.617 202.331 127.827 201.802 128.247 201.398C128.67 200.995 129.235 200.793 129.941 200.793C130.602 200.793 131.125 200.967 131.509 201.315C131.893 201.66 132.085 202.121 132.085 202.697C132.085 203.397 131.639 204.23 130.747 205.197L128.843 207.263H132.412V208ZM133.433 209.416L132.92 209.064C133.226 208.638 133.385 208.199 133.398 207.746V206.931H134.282V207.639C134.282 207.967 134.201 208.296 134.038 208.625C133.879 208.954 133.677 209.217 133.433 209.416ZM142.271 204.968C142.271 206.026 142.09 206.812 141.729 207.326C141.367 207.84 140.802 208.098 140.034 208.098C139.276 208.098 138.714 207.847 138.35 207.346C137.985 206.841 137.796 206.089 137.783 205.09V203.884C137.783 202.839 137.964 202.062 138.325 201.555C138.687 201.047 139.253 200.793 140.024 200.793C140.789 200.793 141.353 201.039 141.714 201.53C142.075 202.019 142.261 202.774 142.271 203.796V204.968ZM141.367 203.732C141.367 202.967 141.26 202.411 141.045 202.062C140.83 201.711 140.49 201.535 140.024 201.535C139.562 201.535 139.225 201.709 139.014 202.058C138.802 202.406 138.693 202.941 138.687 203.664V205.109C138.687 205.878 138.797 206.446 139.019 206.813C139.243 207.178 139.582 207.36 140.034 207.36C140.48 207.36 140.811 207.188 141.025 206.843C141.243 206.498 141.357 205.954 141.367 205.212V203.732Z" fill="black"/>
<path d="M165.212 138.968C165.212 140.026 165.031 140.812 164.67 141.326C164.309 141.84 163.744 142.098 162.976 142.098C162.217 142.098 161.656 141.847 161.291 141.346C160.926 140.841 160.738 140.089 160.725 139.09V137.884C160.725 136.839 160.905 136.062 161.267 135.555C161.628 135.047 162.194 134.793 162.966 134.793C163.731 134.793 164.294 135.039 164.655 135.53C165.017 136.019 165.202 136.774 165.212 137.796V138.968ZM164.309 137.732C164.309 136.967 164.201 136.411 163.986 136.062C163.771 135.711 163.431 135.535 162.966 135.535C162.504 135.535 162.167 135.709 161.955 136.058C161.743 136.406 161.634 136.941 161.628 137.664V139.109C161.628 139.878 161.739 140.446 161.96 140.813C162.185 141.178 162.523 141.36 162.976 141.36C163.422 141.36 163.752 141.188 163.967 140.843C164.185 140.498 164.299 139.954 164.309 139.212V137.732ZM166.433 143.416L165.92 143.064C166.226 142.638 166.385 142.199 166.398 141.746V140.931H167.282V141.639C167.282 141.967 167.201 142.296 167.038 142.625C166.879 142.954 166.677 143.217 166.433 143.416ZM173.781 142H172.873V135.979L171.052 136.648V135.828L173.64 134.856H173.781V142Z" fill="black"/>
<path d="M198.212 138.968C198.212 140.026 198.031 140.812 197.67 141.326C197.309 141.84 196.744 142.098 195.976 142.098C195.217 142.098 194.656 141.847 194.291 141.346C193.926 140.841 193.738 140.089 193.725 139.09V137.884C193.725 136.839 193.905 136.062 194.267 135.555C194.628 135.047 195.194 134.793 195.966 134.793C196.731 134.793 197.294 135.039 197.655 135.53C198.017 136.019 198.202 136.774 198.212 137.796V138.968ZM197.309 137.732C197.309 136.967 197.201 136.411 196.986 136.062C196.771 135.711 196.431 135.535 195.966 135.535C195.504 135.535 195.167 135.709 194.955 136.058C194.743 136.406 194.634 136.941 194.628 137.664V139.109C194.628 139.878 194.739 140.446 194.96 140.813C195.185 141.178 195.523 141.36 195.976 141.36C196.422 141.36 196.752 141.188 196.967 140.843C197.185 140.498 197.299 139.954 197.309 139.212V137.732ZM199.433 143.416L198.92 143.064C199.226 142.638 199.385 142.199 199.398 141.746V140.931H200.282V141.639C200.282 141.967 200.201 142.296 200.038 142.625C199.879 142.954 199.677 143.217 199.433 143.416ZM208.471 142H203.812V141.351L206.273 138.616C206.638 138.203 206.889 137.868 207.025 137.61C207.165 137.35 207.235 137.081 207.235 136.805C207.235 136.434 207.123 136.129 206.898 135.892C206.674 135.654 206.374 135.535 206 135.535C205.551 135.535 205.201 135.664 204.95 135.921C204.703 136.175 204.579 136.53 204.579 136.985H203.676C203.676 136.331 203.886 135.802 204.306 135.398C204.729 134.995 205.294 134.793 206 134.793C206.661 134.793 207.183 134.967 207.567 135.315C207.951 135.66 208.144 136.121 208.144 136.697C208.144 137.397 207.698 138.23 206.806 139.197L204.901 141.263H208.471V142Z" fill="black"/>
<path d="M163.723 175H162.814V168.979L160.993 169.648V168.828L163.581 167.856H163.723V175ZM166.433 176.416L165.92 176.064C166.226 175.638 166.385 175.199 166.398 174.746V173.931H167.282V174.639C167.282 174.967 167.201 175.296 167.038 175.625C166.879 175.954 166.677 176.217 166.433 176.416ZM173.781 175H172.873V168.979L171.052 169.648V168.828L173.64 167.856H173.781V175Z" fill="black"/>
<path d="M196.723 175H195.814V168.979L193.993 169.648V168.828L196.581 167.856H196.723V175ZM199.433 176.416L198.92 176.064C199.226 175.638 199.385 175.199 199.398 174.746V173.931H200.282V174.639C200.282 174.967 200.201 175.296 200.038 175.625C199.879 175.954 199.677 176.217 199.433 176.416ZM208.471 175H203.812V174.351L206.273 171.616C206.638 171.203 206.889 170.868 207.025 170.61C207.165 170.35 207.235 170.081 207.235 169.805C207.235 169.434 207.123 169.129 206.898 168.892C206.674 168.654 206.374 168.535 206 168.535C205.551 168.535 205.201 168.664 204.95 168.921C204.703 169.175 204.579 169.53 204.579 169.985H203.676C203.676 169.331 203.886 168.802 204.306 168.398C204.729 167.995 205.294 167.793 206 167.793C206.661 167.793 207.183 167.967 207.567 168.315C207.951 168.66 208.144 169.121 208.144 169.697C208.144 170.397 207.698 171.23 206.806 172.197L204.901 174.263H208.471V175Z" fill="black"/>
<path d="M165.412 208H160.754V207.351L163.215 204.616C163.579 204.203 163.83 203.868 163.967 203.61C164.107 203.35 164.177 203.081 164.177 202.805C164.177 202.434 164.064 202.129 163.84 201.892C163.615 201.654 163.316 201.535 162.941 201.535C162.492 201.535 162.142 201.664 161.892 201.921C161.644 202.175 161.521 202.53 161.521 202.985H160.617C160.617 202.331 160.827 201.802 161.247 201.398C161.67 200.995 162.235 200.793 162.941 200.793C163.602 200.793 164.125 200.967 164.509 201.315C164.893 201.66 165.085 202.121 165.085 202.697C165.085 203.397 164.639 204.23 163.747 205.197L161.843 207.263H165.412V208ZM166.433 209.416L165.92 209.064C166.226 208.638 166.385 208.199 166.398 207.746V206.931H167.282V207.639C167.282 207.967 167.201 208.296 167.038 208.625C166.879 208.954 166.677 209.217 166.433 209.416ZM173.781 208H172.873V201.979L171.052 202.648V201.828L173.64 200.856H173.781V208Z" fill="black"/>
<path d="M198.412 208H193.754V207.351L196.215 204.616C196.579 204.203 196.83 203.868 196.967 203.61C197.107 203.35 197.177 203.081 197.177 202.805C197.177 202.434 197.064 202.129 196.84 201.892C196.615 201.654 196.316 201.535 195.941 201.535C195.492 201.535 195.142 201.664 194.892 201.921C194.644 202.175 194.521 202.53 194.521 202.985H193.617C193.617 202.331 193.827 201.802 194.247 201.398C194.67 200.995 195.235 200.793 195.941 200.793C196.602 200.793 197.125 200.967 197.509 201.315C197.893 201.66 198.085 202.121 198.085 202.697C198.085 203.397 197.639 204.23 196.747 205.197L194.843 207.263H198.412V208ZM199.433 209.416L198.92 209.064C199.226 208.638 199.385 208.199 199.398 207.746V206.931H200.282V207.639C200.282 207.967 200.201 208.296 200.038 208.625C199.879 208.954 199.677 209.217 199.433 209.416ZM208.471 208H203.812V207.351L206.273 204.616C206.638 204.203 206.889 203.868 207.025 203.61C207.165 203.35 207.235 203.081 207.235 202.805C207.235 202.434 207.123 202.129 206.898 201.892C206.674 201.654 206.374 201.535 206 201.535C205.551 201.535 205.201 201.664 204.95 201.921C204.703 202.175 204.579 202.53 204.579 202.985H203.676C203.676 202.331 203.886 201.802 204.306 201.398C204.729 200.995 205.294 200.793 206 200.793C206.661 200.793 207.183 200.967 207.567 201.315C207.951 201.66 208.144 202.121 208.144 202.697C208.144 203.397 207.698 204.23 206.806 205.197L204.901 207.263H208.471V208Z" fill="black"/>
<path d="M10 119C10 117.343 11.3431 116 13 116H40V146H10V119Z" fill="#C4C4C4"/>
<rect x="43" y="116" width="30" height="30" fill="#C4C4C4"/>
<path d="M76 116H103C104.657 116 106 117.343 106 119V146H76V116Z" fill="#C4C4C4"/>
<rect x="10" y="149" width="30" height="30" fill="#C4C4C4"/>
<rect x="43" y="149" width="30" height="30" fill="#C4C4C4"/>
<rect x="76" y="149" width="30" height="30" fill="#C4C4C4"/>
<path d="M10 182H40V212H13C11.3431 212 10 210.657 10 209V182Z" fill="#C4C4C4"/>
<rect x="43" y="182" width="30" height="30" fill="#C4C4C4"/>
<path d="M76 182H106V209C106 210.657 104.657 212 103 212H76V182Z" fill="#C4C4C4"/>
<rect x="41.6569" y="142" width="8" height="8" transform="rotate(45 41.6569 142)" fill="white"/>
<rect x="74.6569" y="142" width="8" height="8" transform="rotate(45 74.6569 142)" fill="white"/>
<rect x="41.6569" y="175" width="8" height="8" transform="rotate(45 41.6569 175)" fill="white"/>
<rect x="74.6569" y="175" width="8" height="8" transform="rotate(45 74.6569 175)" fill="white"/>
<path d="M26.2119 138.968C26.2119 140.026 26.0312 140.812 25.6699 141.326C25.3086 141.84 24.7438 142.098 23.9756 142.098C23.2171 142.098 22.6556 141.847 22.291 141.346C21.9264 140.841 21.7376 140.089 21.7246 139.09V137.884C21.7246 136.839 21.9053 136.062 22.2666 135.555C22.6279 135.047 23.1943 134.793 23.9658 134.793C24.7308 134.793 25.2939 135.039 25.6553 135.53C26.0166 136.019 26.2021 136.774 26.2119 137.796V138.968ZM25.3086 137.732C25.3086 136.967 25.2012 136.411 24.9863 136.062C24.7715 135.711 24.4313 135.535 23.9658 135.535C23.5036 135.535 23.1667 135.709 22.9551 136.058C22.7435 136.406 22.6344 136.941 22.6279 137.664V139.109C22.6279 139.878 22.7386 140.446 22.96 140.813C23.1846 141.178 23.5231 141.36 23.9756 141.36C24.4215 141.36 24.752 141.188 24.9668 140.843C25.1849 140.498 25.2988 139.954 25.3086 139.212V137.732ZM27.4326 143.416L26.9199 143.064C27.2259 142.638 27.3854 142.199 27.3984 141.746V140.931H28.2822V141.639C28.2822 141.967 28.2008 142.296 28.0381 142.625C27.8786 142.954 27.6768 143.217 27.4326 143.416ZM36.2705 138.968C36.2705 140.026 36.0898 140.812 35.7285 141.326C35.3672 141.84 34.8024 142.098 34.0342 142.098C33.2757 142.098 32.7142 141.847 32.3496 141.346C31.985 140.841 31.7962 140.089 31.7832 139.09V137.884C31.7832 136.839 31.9639 136.062 32.3252 135.555C32.6865 135.047 33.2529 134.793 34.0244 134.793C34.7894 134.793 35.3525 135.039 35.7139 135.53C36.0752 136.019 36.2607 136.774 36.2705 137.796V138.968ZM35.3672 137.732C35.3672 136.967 35.2598 136.411 35.0449 136.062C34.8301 135.711 34.4899 135.535 34.0244 135.535C33.5622 135.535 33.2253 135.709 33.0137 136.058C32.8021 136.406 32.693 136.941 32.6865 137.664V139.109C32.6865 139.878 32.7972 140.446 33.0186 140.813C33.2432 141.178 33.5817 141.36 34.0342 141.36C34.4801 141.36 34.8105 141.188 35.0254 140.843C35.2435 140.498 35.3574 139.954 35.3672 139.212V137.732Z" fill="black"/>
<path d="M23.7227 175H22.8145V168.979L20.9932 169.648V168.828L23.5811 167.856H23.7227V175ZM26.4326 176.416L25.9199 176.064C26.2259 175.638 26.3854 175.199 26.3984 174.746V173.931H27.2822V174.639C27.2822 174.967 27.2008 175.296 27.0381 175.625C26.8786 175.954 26.6768 176.217 26.4326 176.416ZM35.2705 171.968C35.2705 173.026 35.0898 173.812 34.7285 174.326C34.3672 174.84 33.8024 175.098 33.0342 175.098C32.2757 175.098 31.7142 174.847 31.3496 174.346C30.985 173.841 30.7962 173.089 30.7832 172.09V170.884C30.7832 169.839 30.9639 169.062 31.3252 168.555C31.6865 168.047 32.2529 167.793 33.0244 167.793C33.7894 167.793 34.3525 168.039 34.7139 168.53C35.0752 169.019 35.2607 169.774 35.2705 170.796V171.968ZM34.3672 170.732C34.3672 169.967 34.2598 169.411 34.0449 169.062C33.8301 168.711 33.4899 168.535 33.0244 168.535C32.5622 168.535 32.2253 168.709 32.0137 169.058C31.8021 169.406 31.693 169.941 31.6865 170.664V172.109C31.6865 172.878 31.7972 173.446 32.0186 173.813C32.2432 174.178 32.5817 174.36 33.0342 174.36C33.4801 174.36 33.8105 174.188 34.0254 173.843C34.2435 173.498 34.3574 172.954 34.3672 172.212V170.732Z" fill="black"/>
<path d="M26.4121 208H21.7539V207.351L24.2148 204.616C24.5794 204.203 24.8301 203.868 24.9668 203.61C25.1068 203.35 25.1768 203.081 25.1768 202.805C25.1768 202.434 25.0645 202.129 24.8398 201.892C24.6152 201.654 24.3158 201.535 23.9414 201.535C23.4922 201.535 23.1423 201.664 22.8916 201.921C22.6442 202.175 22.5205 202.53 22.5205 202.985H21.6172C21.6172 202.331 21.8271 201.802 22.2471 201.398C22.6702 200.995 23.235 200.793 23.9414 200.793C24.6022 200.793 25.1247 200.967 25.5088 201.315C25.8929 201.66 26.085 202.121 26.085 202.697C26.085 203.397 25.639 204.23 24.7471 205.197L22.8428 207.263H26.4121V208ZM27.4326 209.416L26.9199 209.064C27.2259 208.638 27.3854 208.199 27.3984 207.746V206.931H28.2822V207.639C28.2822 207.967 28.2008 208.296 28.0381 208.625C27.8786 208.954 27.6768 209.217 27.4326 209.416ZM36.2705 204.968C36.2705 206.026 36.0898 206.812 35.7285 207.326C35.3672 207.84 34.8024 208.098 34.0342 208.098C33.2757 208.098 32.7142 207.847 32.3496 207.346C31.985 206.841 31.7962 206.089 31.7832 205.09V203.884C31.7832 202.839 31.9639 202.062 32.3252 201.555C32.6865 201.047 33.2529 200.793 34.0244 200.793C34.7894 200.793 35.3525 201.039 35.7139 201.53C36.0752 202.019 36.2607 202.774 36.2705 203.796V204.968ZM35.3672 203.732C35.3672 202.967 35.2598 202.411 35.0449 202.062C34.8301 201.711 34.4899 201.535 34.0244 201.535C33.5622 201.535 33.2253 201.709 33.0137 202.058C32.8021 202.406 32.693 202.941 32.6865 203.664V205.109C32.6865 205.878 32.7972 206.446 33.0186 206.813C33.2432 207.178 33.5817 207.36 34.0342 207.36C34.4801 207.36 34.8105 207.188 35.0254 206.843C35.2435 206.498 35.3574 205.954 35.3672 205.212V203.732Z" fill="black"/>
<path d="M59.2119 138.968C59.2119 140.026 59.0312 140.812 58.6699 141.326C58.3086 141.84 57.7438 142.098 56.9756 142.098C56.2171 142.098 55.6556 141.847 55.291 141.346C54.9264 140.841 54.7376 140.089 54.7246 139.09V137.884C54.7246 136.839 54.9053 136.062 55.2666 135.555C55.6279 135.047 56.1943 134.793 56.9658 134.793C57.7308 134.793 58.2939 135.039 58.6553 135.53C59.0166 136.019 59.2021 136.774 59.2119 137.796V138.968ZM58.3086 137.732C58.3086 136.967 58.2012 136.411 57.9863 136.062C57.7715 135.711 57.4313 135.535 56.9658 135.535C56.5036 135.535 56.1667 135.709 55.9551 136.058C55.7435 136.406 55.6344 136.941 55.6279 137.664V139.109C55.6279 139.878 55.7386 140.446 55.96 140.813C56.1846 141.178 56.5231 141.36 56.9756 141.36C57.4215 141.36 57.752 141.188 57.9668 140.843C58.1849 140.498 58.2988 139.954 58.3086 139.212V137.732ZM60.4326 143.416L59.9199 143.064C60.2259 142.638 60.3854 142.199 60.3984 141.746V140.931H61.2822V141.639C61.2822 141.967 61.2008 142.296 61.0381 142.625C60.8786 142.954 60.6768 143.217 60.4326 143.416ZM67.7812 142H66.873V135.979L65.0518 136.648V135.828L67.6396 134.856H67.7812V142Z" fill="black"/>
<path d="M92.2119 138.968C92.2119 140.026 92.0312 140.812 91.6699 141.326C91.3086 141.84 90.7438 142.098 89.9756 142.098C89.2171 142.098 88.6556 141.847 88.291 141.346C87.9264 140.841 87.7376 140.089 87.7246 139.09V137.884C87.7246 136.839 87.9053 136.062 88.2666 135.555C88.6279 135.047 89.1943 134.793 89.9658 134.793C90.7308 134.793 91.2939 135.039 91.6553 135.53C92.0166 136.019 92.2021 136.774 92.2119 137.796V138.968ZM91.3086 137.732C91.3086 136.967 91.2012 136.411 90.9863 136.062C90.7715 135.711 90.4313 135.535 89.9658 135.535C89.5036 135.535 89.1667 135.709 88.9551 136.058C88.7435 136.406 88.6344 136.941 88.6279 137.664V139.109C88.6279 139.878 88.7386 140.446 88.96 140.813C89.1846 141.178 89.5231 141.36 89.9756 141.36C90.4215 141.36 90.752 141.188 90.9668 140.843C91.1849 140.498 91.2988 139.954 91.3086 139.212V137.732ZM93.4326 143.416L92.9199 143.064C93.2259 142.638 93.3854 142.199 93.3984 141.746V140.931H94.2822V141.639C94.2822 141.967 94.2008 142.296 94.0381 142.625C93.8786 142.954 93.6768 143.217 93.4326 143.416ZM102.471 142H97.8125V141.351L100.273 138.616C100.638 138.203 100.889 137.868 101.025 137.61C101.165 137.35 101.235 137.081 101.235 136.805C101.235 136.434 101.123 136.129 100.898 135.892C100.674 135.654 100.374 135.535 100 135.535C99.5508 135.535 99.2008 135.664 98.9502 135.921C98.7028 136.175 98.5791 136.53 98.5791 136.985H97.6758C97.6758 136.331 97.8857 135.802 98.3057 135.398C98.7288 134.995 99.2936 134.793 100 134.793C100.661 134.793 101.183 134.967 101.567 135.315C101.951 135.66 102.144 136.121 102.144 136.697C102.144 137.397 101.698 138.23 100.806 139.197L98.9014 141.263H102.471V142Z" fill="black"/>
<path d="M57.7227 175H56.8145V168.979L54.9932 169.648V168.828L57.5811 167.856H57.7227V175ZM60.4326 176.416L59.9199 176.064C60.2259 175.638 60.3854 175.199 60.3984 174.746V173.931H61.2822V174.639C61.2822 174.967 61.2008 175.296 61.0381 175.625C60.8786 175.954 60.6768 176.217 60.4326 176.416ZM67.7812 175H66.873V168.979L65.0518 169.648V168.828L67.6396 167.856H67.7812V175Z" fill="black"/>
<path d="M90.7227 175H89.8145V168.979L87.9932 169.648V168.828L90.5811 167.856H90.7227V175ZM93.4326 176.416L92.9199 176.064C93.2259 175.638 93.3854 175.199 93.3984 174.746V173.931H94.2822V174.639C94.2822 174.967 94.2008 175.296 94.0381 175.625C93.8786 175.954 93.6768 176.217 93.4326 176.416ZM102.471 175H97.8125V174.351L100.273 171.616C100.638 171.203 100.889 170.868 101.025 170.61C101.165 170.35 101.235 170.081 101.235 169.805C101.235 169.434 101.123 169.129 100.898 168.892C100.674 168.654 100.374 168.535 100 168.535C99.5508 168.535 99.2008 168.664 98.9502 168.921C98.7028 169.175 98.5791 169.53 98.5791 169.985H97.6758C97.6758 169.331 97.8857 168.802 98.3057 168.398C98.7288 167.995 99.2936 167.793 100 167.793C100.661 167.793 101.183 167.967 101.567 168.315C101.951 168.66 102.144 169.121 102.144 169.697C102.144 170.397 101.698 171.23 100.806 172.197L98.9014 174.263H102.471V175Z" fill="black"/>
<path d="M59.4121 208H54.7539V207.351L57.2148 204.616C57.5794 204.203 57.8301 203.868 57.9668 203.61C58.1068 203.35 58.1768 203.081 58.1768 202.805C58.1768 202.434 58.0645 202.129 57.8398 201.892C57.6152 201.654 57.3158 201.535 56.9414 201.535C56.4922 201.535 56.1423 201.664 55.8916 201.921C55.6442 202.175 55.5205 202.53 55.5205 202.985H54.6172C54.6172 202.331 54.8271 201.802 55.2471 201.398C55.6702 200.995 56.235 200.793 56.9414 200.793C57.6022 200.793 58.1247 200.967 58.5088 201.315C58.8929 201.66 59.085 202.121 59.085 202.697C59.085 203.397 58.639 204.23 57.7471 205.197L55.8428 207.263H59.4121V208ZM60.4326 209.416L59.9199 209.064C60.2259 208.638 60.3854 208.199 60.3984 207.746V206.931H61.2822V207.639C61.2822 207.967 61.2008 208.296 61.0381 208.625C60.8786 208.954 60.6768 209.217 60.4326 209.416ZM67.7812 208H66.873V201.979L65.0518 202.648V201.828L67.6396 200.856H67.7812V208Z" fill="black"/>
<path d="M92.4121 208H87.7539V207.351L90.2148 204.616C90.5794 204.203 90.8301 203.868 90.9668 203.61C91.1068 203.35 91.1768 203.081 91.1768 202.805C91.1768 202.434 91.0645 202.129 90.8398 201.892C90.6152 201.654 90.3158 201.535 89.9414 201.535C89.4922 201.535 89.1423 201.664 88.8916 201.921C88.6442 202.175 88.5205 202.53 88.5205 202.985H87.6172C87.6172 202.331 87.8271 201.802 88.2471 201.398C88.6702 200.995 89.235 200.793 89.9414 200.793C90.6022 200.793 91.1247 200.967 91.5088 201.315C91.8929 201.66 92.085 202.121 92.085 202.697C92.085 203.397 91.639 204.23 90.7471 205.197L88.8428 207.263H92.4121V208ZM93.4326 209.416L92.9199 209.064C93.2259 208.638 93.3854 208.199 93.3984 207.746V206.931H94.2822V207.639C94.2822 207.967 94.2008 208.296 94.0381 208.625C93.8786 208.954 93.6768 209.217 93.4326 209.416ZM102.471 208H97.8125V207.351L100.273 204.616C100.638 204.203 100.889 203.868 101.025 203.61C101.165 203.35 101.235 203.081 101.235 202.805C101.235 202.434 101.123 202.129 100.898 201.892C100.674 201.654 100.374 201.535 100 201.535C99.5508 201.535 99.2008 201.664 98.9502 201.921C98.7028 202.175 98.5791 202.53 98.5791 202.985H97.6758C97.6758 202.331 97.8857 201.802 98.3057 201.398C98.7288 200.995 99.2936 200.793 100 200.793C100.661 200.793 101.183 200.967 101.567 201.315C101.951 201.66 102.144 202.121 102.144 202.697C102.144 203.397 101.698 204.23 100.806 205.197L98.9014 207.263H102.471V208Z" fill="black"/>
<path d="M222 119C222 117.343 223.343 116 225 116H252V146H222V119Z" fill="#C4C4C4"/>
<rect x="255" y="116" width="30" height="30" fill="#C4C4C4"/>
<path d="M288 116H315C316.657 116 318 117.343 318 119V146H288V116Z" fill="#C4C4C4"/>
<rect x="222" y="149" width="30" height="30" fill="#C4C4C4"/>
<rect x="255" y="149" width="30" height="30" fill="#C4C4C4"/>
<rect x="288" y="149" width="30" height="30" fill="#C4C4C4"/>
<path d="M222 182H252V212H225C223.343 212 222 210.657 222 209V182Z" fill="#C4C4C4"/>
<rect x="255" y="182" width="30" height="30" fill="#C4C4C4"/>
<path d="M288 182H318V209C318 210.657 316.657 212 315 212H288V182Z" fill="#C4C4C4"/>
<rect x="253.657" y="142" width="8" height="8" transform="rotate(45 253.657 142)" fill="white"/>
<rect x="286.657" y="142" width="8" height="8" transform="rotate(45 286.657 142)" fill="white"/>
<rect x="253.657" y="175" width="8" height="8" transform="rotate(45 253.657 175)" fill="white"/>
<rect x="286.657" y="175" width="8" height="8" transform="rotate(45 286.657 175)" fill="white"/>
<path d="M238.212 138.968C238.212 140.026 238.031 140.812 237.67 141.326C237.309 141.84 236.744 142.098 235.976 142.098C235.217 142.098 234.656 141.847 234.291 141.346C233.926 140.841 233.738 140.089 233.725 139.09V137.884C233.725 136.839 233.905 136.062 234.267 135.555C234.628 135.047 235.194 134.793 235.966 134.793C236.731 134.793 237.294 135.039 237.655 135.53C238.017 136.019 238.202 136.774 238.212 137.796V138.968ZM237.309 137.732C237.309 136.967 237.201 136.411 236.986 136.062C236.771 135.711 236.431 135.535 235.966 135.535C235.504 135.535 235.167 135.709 234.955 136.058C234.743 136.406 234.634 136.941 234.628 137.664V139.109C234.628 139.878 234.739 140.446 234.96 140.813C235.185 141.178 235.523 141.36 235.976 141.36C236.422 141.36 236.752 141.188 236.967 140.843C237.185 140.498 237.299 139.954 237.309 139.212V137.732ZM239.433 143.416L238.92 143.064C239.226 142.638 239.385 142.199 239.398 141.746V140.931H240.282V141.639C240.282 141.967 240.201 142.296 240.038 142.625C239.879 142.954 239.677 143.217 239.433 143.416ZM248.271 138.968C248.271 140.026 248.09 140.812 247.729 141.326C247.367 141.84 246.802 142.098 246.034 142.098C245.276 142.098 244.714 141.847 244.35 141.346C243.985 140.841 243.796 140.089 243.783 139.09V137.884C243.783 136.839 243.964 136.062 244.325 135.555C244.687 135.047 245.253 134.793 246.024 134.793C246.789 134.793 247.353 135.039 247.714 135.53C248.075 136.019 248.261 136.774 248.271 137.796V138.968ZM247.367 137.732C247.367 136.967 247.26 136.411 247.045 136.062C246.83 135.711 246.49 135.535 246.024 135.535C245.562 135.535 245.225 135.709 245.014 136.058C244.802 136.406 244.693 136.941 244.687 137.664V139.109C244.687 139.878 244.797 140.446 245.019 140.813C245.243 141.178 245.582 141.36 246.034 141.36C246.48 141.36 246.811 141.188 247.025 140.843C247.243 140.498 247.357 139.954 247.367 139.212V137.732Z" fill="black"/>
<path d="M235.723 175H234.814V168.979L232.993 169.648V168.828L235.581 167.856H235.723V175ZM238.433 176.416L237.92 176.064C238.226 175.638 238.385 175.199 238.398 174.746V173.931H239.282V174.639C239.282 174.967 239.201 175.296 239.038 175.625C238.879 175.954 238.677 176.217 238.433 176.416ZM247.271 171.968C247.271 173.026 247.09 173.812 246.729 174.326C246.367 174.84 245.802 175.098 245.034 175.098C244.276 175.098 243.714 174.847 243.35 174.346C242.985 173.841 242.796 173.089 242.783 172.09V170.884C242.783 169.839 242.964 169.062 243.325 168.555C243.687 168.047 244.253 167.793 245.024 167.793C245.789 167.793 246.353 168.039 246.714 168.53C247.075 169.019 247.261 169.774 247.271 170.796V171.968ZM246.367 170.732C246.367 169.967 246.26 169.411 246.045 169.062C245.83 168.711 245.49 168.535 245.024 168.535C244.562 168.535 244.225 168.709 244.014 169.058C243.802 169.406 243.693 169.941 243.687 170.664V172.109C243.687 172.878 243.797 173.446 244.019 173.813C244.243 174.178 244.582 174.36 245.034 174.36C245.48 174.36 245.811 174.188 246.025 173.843C246.243 173.498 246.357 172.954 246.367 172.212V170.732Z" fill="black"/>
<path d="M238.412 208H233.754V207.351L236.215 204.616C236.579 204.203 236.83 203.868 236.967 203.61C237.107 203.35 237.177 203.081 237.177 202.805C237.177 202.434 237.064 202.129 236.84 201.892C236.615 201.654 236.316 201.535 235.941 201.535C235.492 201.535 235.142 201.664 234.892 201.921C234.644 202.175 234.521 202.53 234.521 202.985H233.617C233.617 202.331 233.827 201.802 234.247 201.398C234.67 200.995 235.235 200.793 235.941 200.793C236.602 200.793 237.125 200.967 237.509 201.315C237.893 201.66 238.085 202.121 238.085 202.697C238.085 203.397 237.639 204.23 236.747 205.197L234.843 207.263H238.412V208ZM239.433 209.416L238.92 209.064C239.226 208.638 239.385 208.199 239.398 207.746V206.931H240.282V207.639C240.282 207.967 240.201 208.296 240.038 208.625C239.879 208.954 239.677 209.217 239.433 209.416ZM248.271 204.968C248.271 206.026 248.09 206.812 247.729 207.326C247.367 207.84 246.802 208.098 246.034 208.098C245.276 208.098 244.714 207.847 244.35 207.346C243.985 206.841 243.796 206.089 243.783 205.09V203.884C243.783 202.839 243.964 202.062 244.325 201.555C244.687 201.047 245.253 200.793 246.024 200.793C246.789 200.793 247.353 201.039 247.714 201.53C248.075 202.019 248.261 202.774 248.271 203.796V204.968ZM247.367 203.732C247.367 202.967 247.26 202.411 247.045 202.062C246.83 201.711 246.49 201.535 246.024 201.535C245.562 201.535 245.225 201.709 245.014 202.058C244.802 202.406 244.693 202.941 244.687 203.664V205.109C244.687 205.878 244.797 206.446 245.019 206.813C245.243 207.178 245.582 207.36 246.034 207.36C246.48 207.36 246.811 207.188 247.025 206.843C247.243 206.498 247.357 205.954 247.367 205.212V203.732Z" fill="black"/>
<path d="M271.212 138.968C271.212 140.026 271.031 140.812 270.67 141.326C270.309 141.84 269.744 142.098 268.976 142.098C268.217 142.098 267.656 141.847 267.291 141.346C266.926 140.841 266.738 140.089 266.725 139.09V137.884C266.725 136.839 266.905 136.062 267.267 135.555C267.628 135.047 268.194 134.793 268.966 134.793C269.731 134.793 270.294 135.039 270.655 135.53C271.017 136.019 271.202 136.774 271.212 137.796V138.968ZM270.309 137.732C270.309 136.967 270.201 136.411 269.986 136.062C269.771 135.711 269.431 135.535 268.966 135.535C268.504 135.535 268.167 135.709 267.955 136.058C267.743 136.406 267.634 136.941 267.628 137.664V139.109C267.628 139.878 267.739 140.446 267.96 140.813C268.185 141.178 268.523 141.36 268.976 141.36C269.422 141.36 269.752 141.188 269.967 140.843C270.185 140.498 270.299 139.954 270.309 139.212V137.732ZM272.433 143.416L271.92 143.064C272.226 142.638 272.385 142.199 272.398 141.746V140.931H273.282V141.639C273.282 141.967 273.201 142.296 273.038 142.625C272.879 142.954 272.677 143.217 272.433 143.416ZM279.781 142H278.873V135.979L277.052 136.648V135.828L279.64 134.856H279.781V142Z" fill="black"/>
<path d="M304.212 138.968C304.212 140.026 304.031 140.812 303.67 141.326C303.309 141.84 302.744 142.098 301.976 142.098C301.217 142.098 300.656 141.847 300.291 141.346C299.926 140.841 299.738 140.089 299.725 139.09V137.884C299.725 136.839 299.905 136.062 300.267 135.555C300.628 135.047 301.194 134.793 301.966 134.793C302.731 134.793 303.294 135.039 303.655 135.53C304.017 136.019 304.202 136.774 304.212 137.796V138.968ZM303.309 137.732C303.309 136.967 303.201 136.411 302.986 136.062C302.771 135.711 302.431 135.535 301.966 135.535C301.504 135.535 301.167 135.709 300.955 136.058C300.743 136.406 300.634 136.941 300.628 137.664V139.109C300.628 139.878 300.739 140.446 300.96 140.813C301.185 141.178 301.523 141.36 301.976 141.36C302.422 141.36 302.752 141.188 302.967 140.843C303.185 140.498 303.299 139.954 303.309 139.212V137.732ZM305.433 143.416L304.92 143.064C305.226 142.638 305.385 142.199 305.398 141.746V140.931H306.282V141.639C306.282 141.967 306.201 142.296 306.038 142.625C305.879 142.954 305.677 143.217 305.433 143.416ZM314.471 142H309.812V141.351L312.273 138.616C312.638 138.203 312.889 137.868 313.025 137.61C313.165 137.35 313.235 137.081 313.235 136.805C313.235 136.434 313.123 136.129 312.898 135.892C312.674 135.654 312.374 135.535 312 135.535C311.551 135.535 311.201 135.664 310.95 135.921C310.703 136.175 310.579 136.53 310.579 136.985H309.676C309.676 136.331 309.886 135.802 310.306 135.398C310.729 134.995 311.294 134.793 312 134.793C312.661 134.793 313.183 134.967 313.567 135.315C313.951 135.66 314.144 136.121 314.144 136.697C314.144 137.397 313.698 138.23 312.806 139.197L310.901 141.263H314.471V142Z" fill="black"/>
<path d="M269.723 175H268.814V168.979L266.993 169.648V168.828L269.581 167.856H269.723V175ZM272.433 176.416L271.92 176.064C272.226 175.638 272.385 175.199 272.398 174.746V173.931H273.282V174.639C273.282 174.967 273.201 175.296 273.038 175.625C272.879 175.954 272.677 176.217 272.433 176.416ZM279.781 175H278.873V168.979L277.052 169.648V168.828L279.64 167.856H279.781V175Z" fill="black"/>
<path d="M302.723 175H301.814V168.979L299.993 169.648V168.828L302.581 167.856H302.723V175ZM305.433 176.416L304.92 176.064C305.226 175.638 305.385 175.199 305.398 174.746V173.931H306.282V174.639C306.282 174.967 306.201 175.296 306.038 175.625C305.879 175.954 305.677 176.217 305.433 176.416ZM314.471 175H309.812V174.351L312.273 171.616C312.638 171.203 312.889 170.868 313.025 170.61C313.165 170.35 313.235 170.081 313.235 169.805C313.235 169.434 313.123 169.129 312.898 168.892C312.674 168.654 312.374 168.535 312 168.535C311.551 168.535 311.201 168.664 310.95 168.921C310.703 169.175 310.579 169.53 310.579 169.985H309.676C309.676 169.331 309.886 168.802 310.306 168.398C310.729 167.995 311.294 167.793 312 167.793C312.661 167.793 313.183 167.967 313.567 168.315C313.951 168.66 314.144 169.121 314.144 169.697C314.144 170.397 313.698 171.23 312.806 172.197L310.901 174.263H314.471V175Z" fill="black"/>
<path d="M271.412 208H266.754V207.351L269.215 204.616C269.579 204.203 269.83 203.868 269.967 203.61C270.107 203.35 270.177 203.081 270.177 202.805C270.177 202.434 270.064 202.129 269.84 201.892C269.615 201.654 269.316 201.535 268.941 201.535C268.492 201.535 268.142 201.664 267.892 201.921C267.644 202.175 267.521 202.53 267.521 202.985H266.617C266.617 202.331 266.827 201.802 267.247 201.398C267.67 200.995 268.235 200.793 268.941 200.793C269.602 200.793 270.125 200.967 270.509 201.315C270.893 201.66 271.085 202.121 271.085 202.697C271.085 203.397 270.639 204.23 269.747 205.197L267.843 207.263H271.412V208ZM272.433 209.416L271.92 209.064C272.226 208.638 272.385 208.199 272.398 207.746V206.931H273.282V207.639C273.282 207.967 273.201 208.296 273.038 208.625C272.879 208.954 272.677 209.217 272.433 209.416ZM279.781 208H278.873V201.979L277.052 202.648V201.828L279.64 200.856H279.781V208Z" fill="black"/>
<path d="M304.412 208H299.754V207.351L302.215 204.616C302.579 204.203 302.83 203.868 302.967 203.61C303.107 203.35 303.177 203.081 303.177 202.805C303.177 202.434 303.064 202.129 302.84 201.892C302.615 201.654 302.316 201.535 301.941 201.535C301.492 201.535 301.142 201.664 300.892 201.921C300.644 202.175 300.521 202.53 300.521 202.985H299.617C299.617 202.331 299.827 201.802 300.247 201.398C300.67 200.995 301.235 200.793 301.941 200.793C302.602 200.793 303.125 200.967 303.509 201.315C303.893 201.66 304.085 202.121 304.085 202.697C304.085 203.397 303.639 204.23 302.747 205.197L300.843 207.263H304.412V208ZM305.433 209.416L304.92 209.064C305.226 208.638 305.385 208.199 305.398 207.746V206.931H306.282V207.639C306.282 207.967 306.201 208.296 306.038 208.625C305.879 208.954 305.677 209.217 305.433 209.416ZM314.471 208H309.812V207.351L312.273 204.616C312.638 204.203 312.889 203.868 313.025 203.61C313.165 203.35 313.235 203.081 313.235 202.805C313.235 202.434 313.123 202.129 312.898 201.892C312.674 201.654 312.374 201.535 312 201.535C311.551 201.535 311.201 201.664 310.95 201.921C310.703 202.175 310.579 202.53 310.579 202.985H309.676C309.676 202.331 309.886 201.802 310.306 201.398C310.729 200.995 311.294 200.793 312 200.793C312.661 200.793 313.183 200.967 313.567 201.315C313.951 201.66 314.144 202.121 314.144 202.697C314.144 203.397 313.698 204.23 312.806 205.197L310.901 207.263H314.471V208Z" fill="black"/>
<path d="M328 119C328 117.343 329.343 116 331 116H358V146H328V119Z" fill="#C4C4C4"/>
<rect x="361" y="116" width="30" height="30" fill="#C4C4C4"/>
<path d="M394 116H421C422.657 116 424 117.343 424 119V146H394V116Z" fill="#C4C4C4"/>
<rect x="328" y="149" width="30" height="30" fill="#C4C4C4"/>
<rect x="361" y="149" width="30" height="30" fill="#C4C4C4"/>
<rect x="394" y="149" width="30" height="30" fill="#C4C4C4"/>
<path d="M328 182H358V212H331C329.343 212 328 210.657 328 209V182Z" fill="#C4C4C4"/>
<rect x="361" y="182" width="30" height="30" fill="#C4C4C4"/>
<path d="M394 182H424V209C424 210.657 422.657 212 421 212H394V182Z" fill="#C4C4C4"/>
<rect x="359.657" y="142" width="8" height="8" transform="rotate(45 359.657 142)" fill="white"/>
<rect x="392.657" y="142" width="8" height="8" transform="rotate(45 392.657 142)" fill="white"/>
<rect x="359.657" y="175" width="8" height="8" transform="rotate(45 359.657 175)" fill="white"/>
<rect x="392.657" y="175" width="8" height="8" transform="rotate(45 392.657 175)" fill="white"/>
<path d="M344.212 138.968C344.212 140.026 344.031 140.812 343.67 141.326C343.309 141.84 342.744 142.098 341.976 142.098C341.217 142.098 340.656 141.847 340.291 141.346C339.926 140.841 339.738 140.089 339.725 139.09V137.884C339.725 136.839 339.905 136.062 340.267 135.555C340.628 135.047 341.194 134.793 341.966 134.793C342.731 134.793 343.294 135.039 343.655 135.53C344.017 136.019 344.202 136.774 344.212 137.796V138.968ZM343.309 137.732C343.309 136.967 343.201 136.411 342.986 136.062C342.771 135.711 342.431 135.535 341.966 135.535C341.504 135.535 341.167 135.709 340.955 136.058C340.743 136.406 340.634 136.941 340.628 137.664V139.109C340.628 139.878 340.739 140.446 340.96 140.813C341.185 141.178 341.523 141.36 341.976 141.36C342.422 141.36 342.752 141.188 342.967 140.843C343.185 140.498 343.299 139.954 343.309 139.212V137.732ZM345.433 143.416L344.92 143.064C345.226 142.638 345.385 142.199 345.398 141.746V140.931H346.282V141.639C346.282 141.967 346.201 142.296 346.038 142.625C345.879 142.954 345.677 143.217 345.433 143.416ZM354.271 138.968C354.271 140.026 354.09 140.812 353.729 141.326C353.367 141.84 352.802 142.098 352.034 142.098C351.276 142.098 350.714 141.847 350.35 141.346C349.985 140.841 349.796 140.089 349.783 139.09V137.884C349.783 136.839 349.964 136.062 350.325 135.555C350.687 135.047 351.253 134.793 352.024 134.793C352.789 134.793 353.353 135.039 353.714 135.53C354.075 136.019 354.261 136.774 354.271 137.796V138.968ZM353.367 137.732C353.367 136.967 353.26 136.411 353.045 136.062C352.83 135.711 352.49 135.535 352.024 135.535C351.562 135.535 351.225 135.709 351.014 136.058C350.802 136.406 350.693 136.941 350.687 137.664V139.109C350.687 139.878 350.797 140.446 351.019 140.813C351.243 141.178 351.582 141.36 352.034 141.36C352.48 141.36 352.811 141.188 353.025 140.843C353.243 140.498 353.357 139.954 353.367 139.212V137.732Z" fill="black"/>
<path d="M341.723 175H340.814V168.979L338.993 169.648V168.828L341.581 167.856H341.723V175ZM344.433 176.416L343.92 176.064C344.226 175.638 344.385 175.199 344.398 174.746V173.931H345.282V174.639C345.282 174.967 345.201 175.296 345.038 175.625C344.879 175.954 344.677 176.217 344.433 176.416ZM353.271 171.968C353.271 173.026 353.09 173.812 352.729 174.326C352.367 174.84 351.802 175.098 351.034 175.098C350.276 175.098 349.714 174.847 349.35 174.346C348.985 173.841 348.796 173.089 348.783 172.09V170.884C348.783 169.839 348.964 169.062 349.325 168.555C349.687 168.047 350.253 167.793 351.024 167.793C351.789 167.793 352.353 168.039 352.714 168.53C353.075 169.019 353.261 169.774 353.271 170.796V171.968ZM352.367 170.732C352.367 169.967 352.26 169.411 352.045 169.062C351.83 168.711 351.49 168.535 351.024 168.535C350.562 168.535 350.225 168.709 350.014 169.058C349.802 169.406 349.693 169.941 349.687 170.664V172.109C349.687 172.878 349.797 173.446 350.019 173.813C350.243 174.178 350.582 174.36 351.034 174.36C351.48 174.36 351.811 174.188 352.025 173.843C352.243 173.498 352.357 172.954 352.367 172.212V170.732Z" fill="black"/>
<path d="M344.412 208H339.754V207.351L342.215 204.616C342.579 204.203 342.83 203.868 342.967 203.61C343.107 203.35 343.177 203.081 343.177 202.805C343.177 202.434 343.064 202.129 342.84 201.892C342.615 201.654 342.316 201.535 341.941 201.535C341.492 201.535 341.142 201.664 340.892 201.921C340.644 202.175 340.521 202.53 340.521 202.985H339.617C339.617 202.331 339.827 201.802 340.247 201.398C340.67 200.995 341.235 200.793 341.941 200.793C342.602 200.793 343.125 200.967 343.509 201.315C343.893 201.66 344.085 202.121 344.085 202.697C344.085 203.397 343.639 204.23 342.747 205.197L340.843 207.263H344.412V208ZM345.433 209.416L344.92 209.064C345.226 208.638 345.385 208.199 345.398 207.746V206.931H346.282V207.639C346.282 207.967 346.201 208.296 346.038 208.625C345.879 208.954 345.677 209.217 345.433 209.416ZM354.271 204.968C354.271 206.026 354.09 206.812 353.729 207.326C353.367 207.84 352.802 208.098 352.034 208.098C351.276 208.098 350.714 207.847 350.35 207.346C349.985 206.841 349.796 206.089 349.783 205.09V203.884C349.783 202.839 349.964 202.062 350.325 201.555C350.687 201.047 351.253 200.793 352.024 200.793C352.789 200.793 353.353 201.039 353.714 201.53C354.075 202.019 354.261 202.774 354.271 203.796V204.968ZM353.367 203.732C353.367 202.967 353.26 202.411 353.045 202.062C352.83 201.711 352.49 201.535 352.024 201.535C351.562 201.535 351.225 201.709 351.014 202.058C350.802 202.406 350.693 202.941 350.687 203.664V205.109C350.687 205.878 350.797 206.446 351.019 206.813C351.243 207.178 351.582 207.36 352.034 207.36C352.48 207.36 352.811 207.188 353.025 206.843C353.243 206.498 353.357 205.954 353.367 205.212V203.732Z" fill="black"/>
<path d="M377.212 138.968C377.212 140.026 377.031 140.812 376.67 141.326C376.309 141.84 375.744 142.098 374.976 142.098C374.217 142.098 373.656 141.847 373.291 141.346C372.926 140.841 372.738 140.089 372.725 139.09V137.884C372.725 136.839 372.905 136.062 373.267 135.555C373.628 135.047 374.194 134.793 374.966 134.793C375.731 134.793 376.294 135.039 376.655 135.53C377.017 136.019 377.202 136.774 377.212 137.796V138.968ZM376.309 137.732C376.309 136.967 376.201 136.411 375.986 136.062C375.771 135.711 375.431 135.535 374.966 135.535C374.504 135.535 374.167 135.709 373.955 136.058C373.743 136.406 373.634 136.941 373.628 137.664V139.109C373.628 139.878 373.739 140.446 373.96 140.813C374.185 141.178 374.523 141.36 374.976 141.36C375.422 141.36 375.752 141.188 375.967 140.843C376.185 140.498 376.299 139.954 376.309 139.212V137.732ZM378.433 143.416L377.92 143.064C378.226 142.638 378.385 142.199 378.398 141.746V140.931H379.282V141.639C379.282 141.967 379.201 142.296 379.038 142.625C378.879 142.954 378.677 143.217 378.433 143.416ZM385.781 142H384.873V135.979L383.052 136.648V135.828L385.64 134.856H385.781V142Z" fill="black"/>
<path d="M410.212 138.968C410.212 140.026 410.031 140.812 409.67 141.326C409.309 141.84 408.744 142.098 407.976 142.098C407.217 142.098 406.656 141.847 406.291 141.346C405.926 140.841 405.738 140.089 405.725 139.09V137.884C405.725 136.839 405.905 136.062 406.267 135.555C406.628 135.047 407.194 134.793 407.966 134.793C408.731 134.793 409.294 135.039 409.655 135.53C410.017 136.019 410.202 136.774 410.212 137.796V138.968ZM409.309 137.732C409.309 136.967 409.201 136.411 408.986 136.062C408.771 135.711 408.431 135.535 407.966 135.535C407.504 135.535 407.167 135.709 406.955 136.058C406.743 136.406 406.634 136.941 406.628 137.664V139.109C406.628 139.878 406.739 140.446 406.96 140.813C407.185 141.178 407.523 141.36 407.976 141.36C408.422 141.36 408.752 141.188 408.967 140.843C409.185 140.498 409.299 139.954 409.309 139.212V137.732ZM411.433 143.416L410.92 143.064C411.226 142.638 411.385 142.199 411.398 141.746V140.931H412.282V141.639C412.282 141.967 412.201 142.296 412.038 142.625C411.879 142.954 411.677 143.217 411.433 143.416ZM420.471 142H415.812V141.351L418.273 138.616C418.638 138.203 418.889 137.868 419.025 137.61C419.165 137.35 419.235 137.081 419.235 136.805C419.235 136.434 419.123 136.129 418.898 135.892C418.674 135.654 418.374 135.535 418 135.535C417.551 135.535 417.201 135.664 416.95 135.921C416.703 136.175 416.579 136.53 416.579 136.985H415.676C415.676 136.331 415.886 135.802 416.306 135.398C416.729 134.995 417.294 134.793 418 134.793C418.661 134.793 419.183 134.967 419.567 135.315C419.951 135.66 420.144 136.121 420.144 136.697C420.144 137.397 419.698 138.23 418.806 139.197L416.901 141.263H420.471V142Z" fill="black"/>
<path d="M375.723 175H374.814V168.979L372.993 169.648V168.828L375.581 167.856H375.723V175ZM378.433 176.416L377.92 176.064C378.226 175.638 378.385 175.199 378.398 174.746V173.931H379.282V174.639C379.282 174.967 379.201 175.296 379.038 175.625C378.879 175.954 378.677 176.217 378.433 176.416ZM385.781 175H384.873V168.979L383.052 169.648V168.828L385.64 167.856H385.781V175Z" fill="black"/>
<path d="M408.723 175H407.814V168.979L405.993 169.648V168.828L408.581 167.856H408.723V175ZM411.433 176.416L410.92 176.064C411.226 175.638 411.385 175.199 411.398 174.746V173.931H412.282V174.639C412.282 174.967 412.201 175.296 412.038 175.625C411.879 175.954 411.677 176.217 411.433 176.416ZM420.471 175H415.812V174.351L418.273 171.616C418.638 171.203 418.889 170.868 419.025 170.61C419.165 170.35 419.235 170.081 419.235 169.805C419.235 169.434 419.123 169.129 418.898 168.892C418.674 168.654 418.374 168.535 418 168.535C417.551 168.535 417.201 168.664 416.95 168.921C416.703 169.175 416.579 169.53 416.579 169.985H415.676C415.676 169.331 415.886 168.802 416.306 168.398C416.729 167.995 417.294 167.793 418 167.793C418.661 167.793 419.183 167.967 419.567 168.315C419.951 168.66 420.144 169.121 420.144 169.697C420.144 170.397 419.698 171.23 418.806 172.197L416.901 174.263H420.471V175Z" fill="black"/>
<path d="M377.412 208H372.754V207.351L375.215 204.616C375.579 204.203 375.83 203.868 375.967 203.61C376.107 203.35 376.177 203.081 376.177 202.805C376.177 202.434 376.064 202.129 375.84 201.892C375.615 201.654 375.316 201.535 374.941 201.535C374.492 201.535 374.142 201.664 373.892 201.921C373.644 202.175 373.521 202.53 373.521 202.985H372.617C372.617 202.331 372.827 201.802 373.247 201.398C373.67 200.995 374.235 200.793 374.941 200.793C375.602 200.793 376.125 200.967 376.509 201.315C376.893 201.66 377.085 202.121 377.085 202.697C377.085 203.397 376.639 204.23 375.747 205.197L373.843 207.263H377.412V208ZM378.433 209.416L377.92 209.064C378.226 208.638 378.385 208.199 378.398 207.746V206.931H379.282V207.639C379.282 207.967 379.201 208.296 379.038 208.625C378.879 208.954 378.677 209.217 378.433 209.416ZM385.781 208H384.873V201.979L383.052 202.648V201.828L385.64 200.856H385.781V208Z" fill="black"/>
<path d="M410.412 208H405.754V207.351L408.215 204.616C408.579 204.203 408.83 203.868 408.967 203.61C409.107 203.35 409.177 203.081 409.177 202.805C409.177 202.434 409.064 202.129 408.84 201.892C408.615 201.654 408.316 201.535 407.941 201.535C407.492 201.535 407.142 201.664 406.892 201.921C406.644 202.175 406.521 202.53 406.521 202.985H405.617C405.617 202.331 405.827 201.802 406.247 201.398C406.67 200.995 407.235 200.793 407.941 200.793C408.602 200.793 409.125 200.967 409.509 201.315C409.893 201.66 410.085 202.121 410.085 202.697C410.085 203.397 409.639 204.23 408.747 205.197L406.843 207.263H410.412V208ZM411.433 209.416L410.92 209.064C411.226 208.638 411.385 208.199 411.398 207.746V206.931H412.282V207.639C412.282 207.967 412.201 208.296 412.038 208.625C411.879 208.954 411.677 209.217 411.433 209.416ZM420.471 208H415.812V207.351L418.273 204.616C418.638 204.203 418.889 203.868 419.025 203.61C419.165 203.35 419.235 203.081 419.235 202.805C419.235 202.434 419.123 202.129 418.898 201.892C418.674 201.654 418.374 201.535 418 201.535C417.551 201.535 417.201 201.664 416.95 201.921C416.703 202.175 416.579 202.53 416.579 202.985H415.676C415.676 202.331 415.886 201.802 416.306 201.398C416.729 200.995 417.294 200.793 418 200.793C418.661 200.793 419.183 200.967 419.567 201.315C419.951 201.66 420.144 202.121 420.144 202.697C420.144 203.397 419.698 204.23 418.806 205.197L416.901 207.263H420.471V208Z" fill="black"/>
<path d="M116 225C116 223.343 117.343 222 119 222H146V252H116V225Z" fill="#C4C4C4"/>
<rect x="149" y="222" width="30" height="30" fill="#C4C4C4"/>
<path d="M182 222H209C210.657 222 212 223.343 212 225V252H182V222Z" fill="#C4C4C4"/>
<rect x="116" y="255" width="30" height="30" fill="#C4C4C4"/>
<rect x="149" y="255" width="30" height="30" fill="#C4C4C4"/>
<rect x="182" y="255" width="30" height="30" fill="#C4C4C4"/>
<path d="M116 288H146V318H119C117.343 318 116 316.657 116 315V288Z" fill="#C4C4C4"/>
<rect x="149" y="288" width="30" height="30" fill="#C4C4C4"/>
<path d="M182 288H212V315C212 316.657 210.657 318 209 318H182V288Z" fill="#C4C4C4"/>
<rect x="147.657" y="248" width="8" height="8" transform="rotate(45 147.657 248)" fill="white"/>
<rect x="180.657" y="248" width="8" height="8" transform="rotate(45 180.657 248)" fill="white"/>
<rect x="147.657" y="281" width="8" height="8" transform="rotate(45 147.657 281)" fill="white"/>
<rect x="180.657" y="281" width="8" height="8" transform="rotate(45 180.657 281)" fill="white"/>
<path d="M132.212 244.968C132.212 246.026 132.031 246.812 131.67 247.326C131.309 247.84 130.744 248.098 129.976 248.098C129.217 248.098 128.656 247.847 128.291 247.346C127.926 246.841 127.738 246.089 127.725 245.09V243.884C127.725 242.839 127.905 242.062 128.267 241.555C128.628 241.047 129.194 240.793 129.966 240.793C130.731 240.793 131.294 241.039 131.655 241.53C132.017 242.019 132.202 242.774 132.212 243.796V244.968ZM131.309 243.732C131.309 242.967 131.201 242.411 130.986 242.062C130.771 241.711 130.431 241.535 129.966 241.535C129.504 241.535 129.167 241.709 128.955 242.058C128.743 242.406 128.634 242.941 128.628 243.664V245.109C128.628 245.878 128.739 246.446 128.96 246.813C129.185 247.178 129.523 247.36 129.976 247.36C130.422 247.36 130.752 247.188 130.967 246.843C131.185 246.498 131.299 245.954 131.309 245.212V243.732ZM133.433 249.416L132.92 249.064C133.226 248.638 133.385 248.199 133.398 247.746V246.931H134.282V247.639C134.282 247.967 134.201 248.296 134.038 248.625C133.879 248.954 133.677 249.217 133.433 249.416ZM142.271 244.968C142.271 246.026 142.09 246.812 141.729 247.326C141.367 247.84 140.802 248.098 140.034 248.098C139.276 248.098 138.714 247.847 138.35 247.346C137.985 246.841 137.796 246.089 137.783 245.09V243.884C137.783 242.839 137.964 242.062 138.325 241.555C138.687 241.047 139.253 240.793 140.024 240.793C140.789 240.793 141.353 241.039 141.714 241.53C142.075 242.019 142.261 242.774 142.271 243.796V244.968ZM141.367 243.732C141.367 242.967 141.26 242.411 141.045 242.062C140.83 241.711 140.49 241.535 140.024 241.535C139.562 241.535 139.225 241.709 139.014 242.058C138.802 242.406 138.693 242.941 138.687 243.664V245.109C138.687 245.878 138.797 246.446 139.019 246.813C139.243 247.178 139.582 247.36 140.034 247.36C140.48 247.36 140.811 247.188 141.025 246.843C141.243 246.498 141.357 245.954 141.367 245.212V243.732Z" fill="black"/>
<path d="M129.723 281H128.814V274.979L126.993 275.648V274.828L129.581 273.856H129.723V281ZM132.433 282.416L131.92 282.064C132.226 281.638 132.385 281.199 132.398 280.746V279.931H133.282V280.639C133.282 280.967 133.201 281.296 133.038 281.625C132.879 281.954 132.677 282.217 132.433 282.416ZM141.271 277.968C141.271 279.026 141.09 279.812 140.729 280.326C140.367 280.84 139.802 281.098 139.034 281.098C138.276 281.098 137.714 280.847 137.35 280.346C136.985 279.841 136.796 279.089 136.783 278.09V276.884C136.783 275.839 136.964 275.062 137.325 274.555C137.687 274.047 138.253 273.793 139.024 273.793C139.789 273.793 140.353 274.039 140.714 274.53C141.075 275.019 141.261 275.774 141.271 276.796V277.968ZM140.367 276.732C140.367 275.967 140.26 275.411 140.045 275.062C139.83 274.711 139.49 274.535 139.024 274.535C138.562 274.535 138.225 274.709 138.014 275.058C137.802 275.406 137.693 275.941 137.687 276.664V278.109C137.687 278.878 137.797 279.446 138.019 279.813C138.243 280.178 138.582 280.36 139.034 280.36C139.48 280.36 139.811 280.188 140.025 279.843C140.243 279.498 140.357 278.954 140.367 278.212V276.732Z" fill="black"/>
<path d="M132.412 314H127.754V313.351L130.215 310.616C130.579 310.203 130.83 309.868 130.967 309.61C131.107 309.35 131.177 309.081 131.177 308.805C131.177 308.434 131.064 308.129 130.84 307.892C130.615 307.654 130.316 307.535 129.941 307.535C129.492 307.535 129.142 307.664 128.892 307.921C128.644 308.175 128.521 308.53 128.521 308.985H127.617C127.617 308.331 127.827 307.802 128.247 307.398C128.67 306.995 129.235 306.793 129.941 306.793C130.602 306.793 131.125 306.967 131.509 307.315C131.893 307.66 132.085 308.121 132.085 308.697C132.085 309.397 131.639 310.23 130.747 311.197L128.843 313.263H132.412V314ZM133.433 315.416L132.92 315.064C133.226 314.638 133.385 314.199 133.398 313.746V312.931H134.282V313.639C134.282 313.967 134.201 314.296 134.038 314.625C133.879 314.954 133.677 315.217 133.433 315.416ZM142.271 310.968C142.271 312.026 142.09 312.812 141.729 313.326C141.367 313.84 140.802 314.098 140.034 314.098C139.276 314.098 138.714 313.847 138.35 313.346C137.985 312.841 137.796 312.089 137.783 311.09V309.884C137.783 308.839 137.964 308.062 138.325 307.555C138.687 307.047 139.253 306.793 140.024 306.793C140.789 306.793 141.353 307.039 141.714 307.53C142.075 308.019 142.261 308.774 142.271 309.796V310.968ZM141.367 309.732C141.367 308.967 141.26 308.411 141.045 308.062C140.83 307.711 140.49 307.535 140.024 307.535C139.562 307.535 139.225 307.709 139.014 308.058C138.802 308.406 138.693 308.941 138.687 309.664V311.109C138.687 311.878 138.797 312.446 139.019 312.813C139.243 313.178 139.582 313.36 140.034 313.36C140.48 313.36 140.811 313.188 141.025 312.843C141.243 312.498 141.357 311.954 141.367 311.212V309.732Z" fill="black"/>
<path d="M165.212 244.968C165.212 246.026 165.031 246.812 164.67 247.326C164.309 247.84 163.744 248.098 162.976 248.098C162.217 248.098 161.656 247.847 161.291 247.346C160.926 246.841 160.738 246.089 160.725 245.09V243.884C160.725 242.839 160.905 242.062 161.267 241.555C161.628 241.047 162.194 240.793 162.966 240.793C163.731 240.793 164.294 241.039 164.655 241.53C165.017 242.019 165.202 242.774 165.212 243.796V244.968ZM164.309 243.732C164.309 242.967 164.201 242.411 163.986 242.062C163.771 241.711 163.431 241.535 162.966 241.535C162.504 241.535 162.167 241.709 161.955 242.058C161.743 242.406 161.634 242.941 161.628 243.664V245.109C161.628 245.878 161.739 246.446 161.96 246.813C162.185 247.178 162.523 247.36 162.976 247.36C163.422 247.36 163.752 247.188 163.967 246.843C164.185 246.498 164.299 245.954 164.309 245.212V243.732ZM166.433 249.416L165.92 249.064C166.226 248.638 166.385 248.199 166.398 247.746V246.931H167.282V247.639C167.282 247.967 167.201 248.296 167.038 248.625C166.879 248.954 166.677 249.217 166.433 249.416ZM173.781 248H172.873V241.979L171.052 242.648V241.828L173.64 240.856H173.781V248Z" fill="black"/>
<path d="M198.212 244.968C198.212 246.026 198.031 246.812 197.67 247.326C197.309 247.84 196.744 248.098 195.976 248.098C195.217 248.098 194.656 247.847 194.291 247.346C193.926 246.841 193.738 246.089 193.725 245.09V243.884C193.725 242.839 193.905 242.062 194.267 241.555C194.628 241.047 195.194 240.793 195.966 240.793C196.731 240.793 197.294 241.039 197.655 241.53C198.017 242.019 198.202 242.774 198.212 243.796V244.968ZM197.309 243.732C197.309 242.967 197.201 242.411 196.986 242.062C196.771 241.711 196.431 241.535 195.966 241.535C195.504 241.535 195.167 241.709 194.955 242.058C194.743 242.406 194.634 242.941 194.628 243.664V245.109C194.628 245.878 194.739 246.446 194.96 246.813C195.185 247.178 195.523 247.36 195.976 247.36C196.422 247.36 196.752 247.188 196.967 246.843C197.185 246.498 197.299 245.954 197.309 245.212V243.732ZM199.433 249.416L198.92 249.064C199.226 248.638 199.385 248.199 199.398 247.746V246.931H200.282V247.639C200.282 247.967 200.201 248.296 200.038 248.625C199.879 248.954 199.677 249.217 199.433 249.416ZM208.471 248H203.812V247.351L206.273 244.616C206.638 244.203 206.889 243.868 207.025 243.61C207.165 243.35 207.235 243.081 207.235 242.805C207.235 242.434 207.123 242.129 206.898 241.892C206.674 241.654 206.374 241.535 206 241.535C205.551 241.535 205.201 241.664 204.95 241.921C204.703 242.175 204.579 242.53 204.579 242.985H203.676C203.676 242.331 203.886 241.802 204.306 241.398C204.729 240.995 205.294 240.793 206 240.793C206.661 240.793 207.183 240.967 207.567 241.315C207.951 241.66 208.144 242.121 208.144 242.697C208.144 243.397 207.698 244.23 206.806 245.197L204.901 247.263H208.471V248Z" fill="black"/>
<path d="M163.723 281H162.814V274.979L160.993 275.648V274.828L163.581 273.856H163.723V281ZM166.433 282.416L165.92 282.064C166.226 281.638 166.385 281.199 166.398 280.746V279.931H167.282V280.639C167.282 280.967 167.201 281.296 167.038 281.625C166.879 281.954 166.677 282.217 166.433 282.416ZM173.781 281H172.873V274.979L171.052 275.648V274.828L173.64 273.856H173.781V281Z" fill="black"/>
<path d="M196.723 281H195.814V274.979L193.993 275.648V274.828L196.581 273.856H196.723V281ZM199.433 282.416L198.92 282.064C199.226 281.638 199.385 281.199 199.398 280.746V279.931H200.282V280.639C200.282 280.967 200.201 281.296 200.038 281.625C199.879 281.954 199.677 282.217 199.433 282.416ZM208.471 281H203.812V280.351L206.273 277.616C206.638 277.203 206.889 276.868 207.025 276.61C207.165 276.35 207.235 276.081 207.235 275.805C207.235 275.434 207.123 275.129 206.898 274.892C206.674 274.654 206.374 274.535 206 274.535C205.551 274.535 205.201 274.664 204.95 274.921C204.703 275.175 204.579 275.53 204.579 275.985H203.676C203.676 275.331 203.886 274.802 204.306 274.398C204.729 273.995 205.294 273.793 206 273.793C206.661 273.793 207.183 273.967 207.567 274.315C207.951 274.66 208.144 275.121 208.144 275.697C208.144 276.397 207.698 277.23 206.806 278.197L204.901 280.263H208.471V281Z" fill="black"/>
<path d="M165.412 314H160.754V313.351L163.215 310.616C163.579 310.203 163.83 309.868 163.967 309.61C164.107 309.35 164.177 309.081 164.177 308.805C164.177 308.434 164.064 308.129 163.84 307.892C163.615 307.654 163.316 307.535 162.941 307.535C162.492 307.535 162.142 307.664 161.892 307.921C161.644 308.175 161.521 308.53 161.521 308.985H160.617C160.617 308.331 160.827 307.802 161.247 307.398C161.67 306.995 162.235 306.793 162.941 306.793C163.602 306.793 164.125 306.967 164.509 307.315C164.893 307.66 165.085 308.121 165.085 308.697C165.085 309.397 164.639 310.23 163.747 311.197L161.843 313.263H165.412V314ZM166.433 315.416L165.92 315.064C166.226 314.638 166.385 314.199 166.398 313.746V312.931H167.282V313.639C167.282 313.967 167.201 314.296 167.038 314.625C166.879 314.954 166.677 315.217 166.433 315.416ZM173.781 314H172.873V307.979L171.052 308.648V307.828L173.64 306.856H173.781V314Z" fill="black"/>
<path d="M198.412 314H193.754V313.351L196.215 310.616C196.579 310.203 196.83 309.868 196.967 309.61C197.107 309.35 197.177 309.081 197.177 308.805C197.177 308.434 197.064 308.129 196.84 307.892C196.615 307.654 196.316 307.535 195.941 307.535C195.492 307.535 195.142 307.664 194.892 307.921C194.644 308.175 194.521 308.53 194.521 308.985H193.617C193.617 308.331 193.827 307.802 194.247 307.398C194.67 306.995 195.235 306.793 195.941 306.793C196.602 306.793 197.125 306.967 197.509 307.315C197.893 307.66 198.085 308.121 198.085 308.697C198.085 309.397 197.639 310.23 196.747 311.197L194.843 313.263H198.412V314ZM199.433 315.416L198.92 315.064C199.226 314.638 199.385 314.199 199.398 313.746V312.931H200.282V313.639C200.282 313.967 200.201 314.296 200.038 314.625C199.879 314.954 199.677 315.217 199.433 315.416ZM208.471 314H203.812V313.351L206.273 310.616C206.638 310.203 206.889 309.868 207.025 309.61C207.165 309.35 207.235 309.081 207.235 308.805C207.235 308.434 207.123 308.129 206.898 307.892C206.674 307.654 206.374 307.535 206 307.535C205.551 307.535 205.201 307.664 204.95 307.921C204.703 308.175 204.579 308.53 204.579 308.985H203.676C203.676 308.331 203.886 307.802 204.306 307.398C204.729 306.995 205.294 306.793 206 306.793C206.661 306.793 207.183 306.967 207.567 307.315C207.951 307.66 208.144 308.121 208.144 308.697C208.144 309.397 207.698 310.23 206.806 311.197L204.901 313.263H208.471V314Z" fill="black"/>
<rect x="298" y="46" width="29" height="29" rx="2" fill="#C4C4C4"/>
<rect x="301" y="49" width="23" height="23" fill="#EB5757"/>
<rect x="298" y="14" width="29" height="29" rx="2" fill="#C4C4C4"/>
<rect x="301" y="17" width="23" height="23" fill="#F2C94C"/>
<rect x="298" y="78" width="29" height="29" rx="2" fill="#C4C4C4"/>
<rect x="301" y="81" width="23" height="23" fill="#F2F2F2"/>
<rect x="266" y="46" width="29" height="29" rx="2" fill="#C4C4C4"/>
<rect x="269" y="49" width="23" height="23" fill="#2F80ED"/>
<rect x="330" y="46" width="29" height="29" rx="2" fill="#C4C4C4"/>
<rect x="333" y="49" width="23" height="23" fill="#219653"/>
<rect x="362" y="46" width="29" height="29" rx="2" fill="#C4C4C4"/>
<rect x="365" y="49" width="23" height="23" fill="#F2994A"/>
<path d="M314.879 61.2324H311.299V65H310.174V56.4688H315.459V57.3945H311.299V60.3125H314.879V61.2324Z" fill="black"/>
<path d="M279.393 64.0801H283.436V65H278.262V56.4688H279.393V64.0801Z" fill="black"/>
<path d="M345.422 61.5488H343.418V65H342.287V56.4688H345.111C346.072 56.4688 346.811 56.6875 347.326 57.125C347.846 57.5625 348.105 58.1992 348.105 59.0352C348.105 59.5664 347.961 60.0293 347.672 60.4238C347.387 60.8184 346.988 61.1133 346.477 61.3086L348.48 64.9297V65H347.273L345.422 61.5488ZM343.418 60.6289H345.146C345.705 60.6289 346.148 60.4844 346.477 60.1953C346.809 59.9062 346.975 59.5195 346.975 59.0352C346.975 58.5078 346.816 58.1035 346.5 57.8223C346.188 57.541 345.734 57.3984 345.141 57.3945H343.418V60.6289Z" fill="black"/>
<path d="M374.053 65V56.4688H376.461C377.203 56.4688 377.859 56.6328 378.43 56.9609C379 57.2891 379.439 57.7559 379.748 58.3613C380.061 58.9668 380.219 59.6621 380.223 60.4473V60.9922C380.223 61.7969 380.066 62.502 379.754 63.1074C379.445 63.7129 379.002 64.1777 378.424 64.502C377.85 64.8262 377.18 64.9922 376.414 65H374.053ZM375.178 57.3945V64.0801H376.361C377.229 64.0801 377.902 63.8105 378.383 63.2715C378.867 62.7324 379.109 61.9648 379.109 60.9688V60.4707C379.109 59.502 378.881 58.75 378.424 58.2148C377.971 57.6758 377.326 57.4023 376.49 57.3945H375.178Z" fill="black"/>
<path d="M315.105 24.4688V30.2695C315.102 31.0742 314.848 31.7324 314.344 32.2441C313.844 32.7559 313.164 33.043 312.305 33.1055L312.006 33.1172C311.072 33.1172 310.328 32.8652 309.773 32.3613C309.219 31.8574 308.938 31.1641 308.93 30.2812V24.4688H310.043V30.2461C310.043 30.8633 310.213 31.3438 310.553 31.6875C310.893 32.0273 311.377 32.1973 312.006 32.1973C312.643 32.1973 313.129 32.0273 313.465 31.6875C313.805 31.3477 313.975 30.8691 313.975 30.252V24.4688H315.105Z" fill="black"/>
<path d="M309.053 97V88.4688H311.461C312.203 88.4688 312.859 88.6328 313.43 88.9609C314 89.2891 314.439 89.7559 314.748 90.3613C315.061 90.9668 315.219 91.6621 315.223 92.4473V92.9922C315.223 93.7969 315.066 94.502 314.754 95.1074C314.445 95.7129 314.002 96.1777 313.424 96.502C312.85 96.8262 312.18 96.9922 311.414 97H309.053ZM310.178 89.3945V96.0801H311.361C312.229 96.0801 312.902 95.8105 313.383 95.2715C313.867 94.7324 314.109 93.9648 314.109 92.9688V92.4707C314.109 91.502 313.881 90.75 313.424 90.2148C312.971 89.6758 312.326 89.4023 311.49 89.3945H310.178Z" fill="black"/>
</svg>
